<svg xmlns="http://www.w3.org/2000/svg" width="447.951" height="159.283" viewBox="0 0 447.951 159.283">
  <g id="Group_19" data-name="Group 19" transform="translate(-83.06 -437.72)">
    <path id="Path_7" data-name="Path 7" d="M327.5,331.656l.493.124-.492-.124Z" transform="translate(8 155)" fill="#333"/>
    <path id="Path_8" data-name="Path 8" d="M491.852,360.607v.006l0,.019Z" transform="translate(8 155)" fill="#333"/>
    <path id="Path_9" data-name="Path 9" d="M363.416,326.458h0s4.08.968,10.248,2.625C367.5,327.426,363.422,326.459,363.416,326.458Z" transform="translate(8 155)" fill="#333"/>
    <path id="Path_10" data-name="Path 10" d="M373.853,350.592a.5.5,0,0,1,.044.026h0Z" transform="translate(8 155)" fill="#333"/>
    <path id="Path_11" data-name="Path 11" d="M332.224,332.757l-.043-.01c.33.084.651.17.979.255l-.078-.023Z" transform="translate(8 155)" fill="#333"/>
    <path id="Path_12" data-name="Path 12" d="M135.8,368.558l-.014.011c-.025.016-.048.036-.072.053C135.747,368.6,135.775,368.578,135.8,368.558Z" transform="translate(8 155)" fill="#333"/>
    <path id="Path_13" data-name="Path 13" d="M125.238,373.667a44.273,44.273,0,0,0-3.27,17.626c0,.456.006.911.017,1.361a43.7,43.7,0,0,0,3.262,16.856c1.993,4.437,4.677,6.984,7.366,6.984-2.689,0-4.477-2.554-6.47-6.991a43.737,43.737,0,0,1-3.262-16.856c-.01-.451-.017-.9-.017-1.36a44.3,44.3,0,0,1,3.27-17.626c1.163-2.59,1.665-4.527,3.162-5.7A14.979,14.979,0,0,0,125.238,373.667Z" transform="translate(8 155)" fill="#333"/>
    <path id="Path_14" data-name="Path 14" d="M182.686,401.043c.487.485.81.4,1.5.438l5.993.334c6.117.34,12.232.7,18.347,1.058q18.119,1.046,36.231,2.188a40.612,40.612,0,0,1-3.77-10.579,9.671,9.671,0,0,0-.261-1.466l-16.135-.713-46.306-1.421-.018-.054c-.111-.341-.221-.763-.324-1.109-.042-.159-.083-.318-.126-.478l35.044,1.076,26.661.512c-.288-1.557-.274-3.247-.429-4.813-.21-2.119-.416-4.238-.592-6.36-.349-4.252-.583-8.512-.6-12.779a91.492,91.492,0,0,1,1.652-18.5c-1.924-.034-3.776-.053-5.544-.059-23.03-.076-50.674-.052-59.4-.041a58.494,58.494,0,0,1,3.691-7.2c3.223-5.532,4.947-8.884,4.947-8.884l-.118-.087q-1.139,1.537-2.262,3.085-1.428,2.021-2.844,4.05-1.545,2.2-3.031,4.447c-.7,1.06-1.39,2.127-2.029,3.221a5.845,5.845,0,0,0-.965,2.074,45.843,45.843,0,0,0,.034,6.893c.105,2.625.255,5.246.471,7.867.417,5.058,1.038,10.1,1.921,15.107,1.039,5.9,2.134,12.333,5.026,17.686A19.124,19.124,0,0,0,182.686,401.043Z" transform="translate(8 155)" fill="#36454e"/>
    <path id="Path_15" data-name="Path 15" d="M361.6,360.141a9.427,9.427,0,0,0-1.732,3.969,10.073,10.073,0,0,0-.183,2.16,9.761,9.761,0,0,0,.267,2.127,7.841,7.841,0,0,0,1.952,3.663,6.26,6.26,0,0,0,.784.664,6.035,6.035,0,0,0,.881.507,4.825,4.825,0,0,0,.469.188c.081.027.164.058.242.08l.227.062a5.458,5.458,0,0,0,.975.145,4.964,4.964,0,0,0,.954-.036,5.174,5.174,0,0,0,.9-.185,6.28,6.28,0,0,0,1.578-.725,7.884,7.884,0,0,0,2.139-2.081,10.336,10.336,0,0,0,1.089-1.993,11.931,11.931,0,0,0,.469-1.38c.046-.161.07-.287.091-.371s.03-.128.03-.128.01-.044.027-.129.05-.21.075-.376a11.376,11.376,0,0,0,.161-1.447,10.141,10.141,0,0,0-.149-2.271,8.427,8.427,0,0,0-.526-1.734,2.057,2.057,0,0,1,.325-2.351c.053-.036.106-.072.162-.1a.177.177,0,0,0,.023-.014.928.928,0,0,0,.12-.071c1.464-.833,3.744-1.185,2.364-1.261-1.9-.1-7.307-.365-9.2.2a5.787,5.787,0,0,0-1.152.308A7.75,7.75,0,0,0,361.6,360.141Zm3.6-1.951a5.635,5.635,0,0,1,1.549-.313l.078.01c.138.021.3.05.492.093s.4.1.623.179a5.06,5.06,0,0,1,.707.3,5.3,5.3,0,0,1,.735.448,5.241,5.241,0,0,1,.7.616c.054.061.107.121.16.184l.08.09.073.1.148.2.134.212c.094.138.165.294.247.443s.139.311.2.466.117.32.165.482.094.323.128.488.068.323.1.482.045.318.066.471.026.307.039.452c0,.074.013.145.014.217l.006.209c0,.138.006.27.008.394s-.005.247-.008.357,0,.218-.007.316-.013.186-.017.267c-.023.323-.035.508-.035.508s.026-.185.07-.508c.01-.08.023-.17.032-.267s.017-.2.024-.317.02-.233.029-.36,0-.261,0-.4l0-.211c0-.074-.005-.146-.007-.221-.008-.15-.011-.3-.024-.462s-.032-.305-.05-.462a9.781,9.781,0,0,1-.071,3.851c-.895,4.159-4.125,7.033-7.2,6.408s-4.845-4.517-3.949-8.673A9.684,9.684,0,0,1,362.489,360,6.954,6.954,0,0,1,365.2,358.19Z" transform="translate(8 155)" fill="#36454e"/>
    <path id="Path_16" data-name="Path 16" d="M342.308,367.1l.011,0c-.239.184-.713.057-.752.2a8.068,8.068,0,0,1-1.137-.219l0,.105a12.912,12.912,0,0,0,.4,2.934c.328.95.693-2.391.734-2.782-.011.308.228,2.012.228,2.012l.448-1.819a1.17,1.17,0,0,0,1.015-.459,1.029,1.029,0,0,0,.553-.751l-1.963-.378S341.6,366.892,342.308,367.1Z" transform="translate(8 155)" fill="#36454e"/>
    <path id="Path_17" data-name="Path 17" d="M343.858,363.92a1.547,1.547,0,0,1-.953.082,14.609,14.609,0,0,1,.666-1.541c.236-.033.6-.037.531.259-.1.434-.12.589-.12.589s1.415-1.939,1.626-2.1-.967-.323-1.177-.093c-.161.175-.525.6-.688.787-.022.022-.048.055-.08.093l0,0h0c-.411.514-1.575,2.315-1.575,2.315s-.166.17.706.338a1.526,1.526,0,0,1,1.042.793l.108.234a10.525,10.525,0,0,1,1.26-2.386C345.7,362.81,344.255,363.7,343.858,363.92Z" transform="translate(8 155)" fill="#36454e"/>
    <path id="Path_18" data-name="Path 18" d="M346.287,360.788a18.209,18.209,0,0,0-1.369,1.476s-.561.671-.335.485,1.292-.264,1.353-.333.446-.474.592-.63S346.792,360.344,346.287,360.788Z" transform="translate(8 155)" fill="#36454e"/>
    <path id="Path_19" data-name="Path 19" d="M345.332,363.336a11.344,11.344,0,0,0-1.292,2.463.345.345,0,0,0-.024.118c0,.06.311.084.522.1s.191-.073.344-.472a12.2,12.2,0,0,1,1.413-1.791C346.952,362.94,345.9,362.713,345.332,363.336Z" transform="translate(8 155)" fill="#36454e"/>
    <path id="Path_20" data-name="Path 20" d="M348.244,365.772l-1.064-.333-.167,1.089,1.9.29s1.309-5.026-2.15-7.231l-.242.449A7.013,7.013,0,0,1,348.244,365.772Z" transform="translate(8 155)" fill="#36454e"/>
    <path id="Path_21" data-name="Path 21" d="M346,365.139a2.731,2.731,0,0,0-.96.993l.507.074s0,.042.076-.2S346.577,364.846,346,365.139Z" transform="translate(8 155)" fill="#36454e"/>
    <path id="Path_22" data-name="Path 22" d="M341.948,364.3c.754-1.471,2.175-2.934,1.856-2.788a.683.683,0,0,1-.6.056c-.2-.051,1.263-1.692.436-1A13.205,13.205,0,0,0,341,364.086C341.17,364.12,341.948,364.3,341.948,364.3Z" transform="translate(8 155)" fill="#36454e"/>
    <path id="Path_23" data-name="Path 23" d="M344.327,361.005a4.237,4.237,0,0,1,1.99-1.132.4.4,0,0,0,.238-.445l-.819-.47c-.407.082-1.8,1.374-1.5,1.21S344.327,361.005,344.327,361.005Z" transform="translate(8 155)" fill="#36454e"/>
    <path id="Path_24" data-name="Path 24" d="M338.446,366.317a.144.144,0,0,1,.126-.087l0,.024c-.1.013-.3.86-.3.906a11.343,11.343,0,0,0,.827,3.723c.651,1.06-.609-1.925-.49-3.8.006-.087.009-.162.011-.232a1.388,1.388,0,0,1,.3-.05c.3-.036.246.09.288-.171.032-.194.145-.18.2-.16s.1.046.122.058a.549.549,0,0,1,.206.284l.6.134a2.962,2.962,0,0,1-.157-1.313l-1.889-.363a4.226,4.226,0,0,0-.114,1.39C338.241,367.512,338.354,366.587,338.446,366.317Z" transform="translate(8 155)" fill="#36454e"/>
    <path id="Path_25" data-name="Path 25" d="M339.92,364.988a1.138,1.138,0,0,1,.518-.5c.3-.1-.63-.244-.668-.245a1.7,1.7,0,0,0-.491.5c-.057.153.137.189.137.189a1.529,1.529,0,0,1,.307-.361c.139-.09-.166.39-.166.39Z" transform="translate(8 155)" fill="#36454e"/>
    <path id="Path_26" data-name="Path 26" d="M340.92,364.136a1.25,1.25,0,0,0-1.652.109A1.8,1.8,0,0,1,340.92,364.136Z" transform="translate(8 155)" fill="#36454e"/>
    <path id="Path_27" data-name="Path 27" d="M337.95,365.2l-.236-.046s-.537,4.147,1.436,6.909A12.467,12.467,0,0,1,337.95,365.2Z" transform="translate(8 155)" fill="#36454e"/>
    <path id="Path_28" data-name="Path 28" d="M338.923,372.719a6.1,6.1,0,0,0,.784.665,5.87,5.87,0,0,0,.881.507c.157.066.3.136.47.189.08.025.163.057.24.08l.229.062a5.64,5.64,0,0,0,.975.144,5.214,5.214,0,0,0,.954-.034,5.572,5.572,0,0,0,.9-.187,6.243,6.243,0,0,0,1.578-.724,7.912,7.912,0,0,0,2.139-2.081,10.455,10.455,0,0,0,1.089-1.995,11.821,11.821,0,0,0,.468-1.379c.046-.161.071-.287.092-.371s.029-.129.029-.129.01-.043.029-.128.047-.21.074-.376a11.587,11.587,0,0,0,.161-1.447,10.082,10.082,0,0,0-.151-2.269,7.706,7.706,0,0,0-1.087-2.785,6.139,6.139,0,0,0-1.154-1.309,5.521,5.521,0,0,0-1.627-.958,5.628,5.628,0,0,0-4.01.022,7.742,7.742,0,0,0-3.37,2.585,9.46,9.46,0,0,0-1.733,3.97,10.061,10.061,0,0,0-.182,2.158,9.711,9.711,0,0,0,.267,2.128A7.849,7.849,0,0,0,338.923,372.719Zm-1.688-7.872a9.934,9.934,0,0,1,1.091-2.611l.464.212s.553-1.193,3.56-3.642c.138-.044.276-.083.416-.117a9.673,9.673,0,0,0-2.1,2.064c-.115.357.758.147.758.147a13.872,13.872,0,0,1,2.665-2.367c.115,0,.227.022.34.031a6.061,6.061,0,0,0-1.054.731s.3.682-.6.533a13.555,13.555,0,0,0-.932.993c-.04.066.659.408.661.458s2.4-2.33,2.737-2.427c.253-.074-.337-.211-.631-.271.1.011.208.009.308.029l.11.018.024,0h.007l.014,0,.057.013.228.054c.137.043.267.072.4.128a5.223,5.223,0,0,1,1.46.814,6.515,6.515,0,0,1,1.109,1.133,7.9,7.9,0,0,1,1.494,3.711c.027.185.039.363.054.534s.014.335.015.49a8.573,8.573,0,0,1-.111,1.438c-.025.164-.054.289-.068.374s-.025.128-.025.128-.01.043-.031.126-.048.211-.1.37a8.385,8.385,0,0,1-.5,1.35c-.066.141-.14.286-.219.439s-.172.3-.273.462a7.853,7.853,0,0,1-.713.97,8.028,8.028,0,0,1-2.182,1.807,6.977,6.977,0,0,1-1.473.612c-.1.027-.209.04-.313.063.148-.032.323-.076.522-.14a5.26,5.26,0,0,0,.677-.258,6.761,6.761,0,0,0,1.564-.984,7.089,7.089,0,0,0,.763-.742c.126-.132.236-.28.352-.424s.219-.3.325-.453a9.236,9.236,0,0,0,.55-.97c.08-.165.162-.329.226-.5s.138-.331.191-.5.12-.327.161-.489.09-.322.133-.476c.067-.313.141-.607.18-.883l.063-.395c.014-.126.027-.244.037-.358s.023-.216.033-.314.011-.186.017-.267c.018-.322.024-.505.024-.505s-.032.182-.079.5c-.012.08-.023.168-.04.264s-.038.2-.059.308-.043.226-.068.35-.057.251-.087.385c-.055.27-.145.555-.224.859-.049.149-.1.3-.149.459s-.114.312-.172.471a10.471,10.471,0,0,1-.426.958,9.11,9.11,0,0,1-.539.931c-.1.148-.2.3-.31.439s-.217.284-.335.412a7.919,7.919,0,0,1-.718.733,8.214,8.214,0,0,1-.751.589,7.8,7.8,0,0,1-.724.442,6.911,6.911,0,0,1-1.162.5,4.3,4.3,0,0,1-.462.127s.043,0,.123-.012a4.652,4.652,0,0,1-1,.081,5.016,5.016,0,0,1-.872-.1l-.232-.051c-.076-.016-.143-.037-.216-.057a4.427,4.427,0,0,1-.431-.142,5.382,5.382,0,0,1-.838-.413c-.118-.072-.231-.15-.343-.23-.147-.12-.295-.256-.444-.4a5.46,5.46,0,0,1-.583-.72,4.027,4.027,0,0,1-.258-.422c-.038-.074-.081-.145-.118-.221s-.072-.156-.11-.234c-.077-.153-.129-.321-.2-.483s-.111-.335-.158-.506-.094-.342-.126-.518c-.019-.088-.038-.174-.054-.261s-.028-.175-.042-.263c-.03-.174-.046-.351-.07-.524s-.034-.344-.043-.514c-.019-.341-.029-.67-.025-.986s.01-.613.027-.886.036-.53.059-.753.044-.42.065-.581c.041-.323.072-.506.072-.506s-.059.176-.139.494c-.041.158-.088.352-.131.575s-.091.477-.127.756c-.02.139-.034.283-.053.435s-.028.306-.037.467c-.02.322-.032.662-.02,1.013,0,.175.016.353.026.534s.028.364.059.545c.015.091.028.183.04.274.011.061.024.121.036.182-.028-.1-.057-.193-.081-.292a8.228,8.228,0,0,1-.216-2.079A9.762,9.762,0,0,1,337.235,364.847Z" transform="translate(8 155)" fill="#36454e"/>
    <path id="Path_29" data-name="Path 29" d="M366.348,365.441l-1.667-.3s-.21.857.4,1.03l.007,0c-.2.172-.6.068-.635.2a6.441,6.441,0,0,1-.967-.17l0,.094a12.294,12.294,0,0,0,.345,2.641c.28.849.582-2.176.616-2.529-.01.278.2,1.81.2,1.81l.375-1.653a1.008,1.008,0,0,0,.861-.438A.953.953,0,0,0,366.348,365.441Z" transform="translate(8 155)" fill="#36454e"/>
    <path id="Path_30" data-name="Path 30" d="M367.863,360.77c.178-.156-.821-.268-1-.057-.136.161-.445.552-.583.728-.018.02-.04.05-.068.086l0,0h0c-.346.475-1.33,2.129-1.33,2.129s-.142.157.6.288a1.278,1.278,0,0,1,.888.692l.091.209a10.147,10.147,0,0,1,1.061-2.183l.19-.04a.692.692,0,0,0-.074.078,10.791,10.791,0,0,0-1.091,2.254.3.3,0,0,0-.019.107c0,.055.264.069.442.078s.162-.07.291-.434a11.32,11.32,0,0,1,1.2-1.651c.339-.458.138-.7-.18-.693.121-.141.289-.334.37-.43.124-.143.223-1.308-.206-.9a16.546,16.546,0,0,0-1.158,1.365s-.476.62-.284.446a.619.619,0,0,1,.178-.091c-.286.178-.635.411-.791.505a1.256,1.256,0,0,1-.809.1,13.937,13.937,0,0,1,.561-1.408c.2-.035.51-.048.452.222-.085.393-.1.533-.1.533S367.685,360.925,367.863,360.77Z" transform="translate(8 155)" fill="#36454e"/>
    <path id="Path_31" data-name="Path 31" d="M370.116,364.835l-.9-.276-.137.987,1.618.218s1.1-4.569-1.847-6.479l-.2.41A6.437,6.437,0,0,1,370.116,364.835Z" transform="translate(8 155)" fill="#36454e"/>
    <path id="Path_32" data-name="Path 32" d="M364.4,369.371c-.024.075-.307,1.079-.511.645,0,0,.254.857.38,1.126s.852.73.961.915a10.865,10.865,0,0,1-.525-2.131C364.711,369.128,364.47,369.138,364.4,369.371Z" transform="translate(8 155)" fill="#36454e"/>
    <path id="Path_33" data-name="Path 33" d="M367.4,365.235l.431.056s0,.039.064-.189.807-1.063.318-.787A2.506,2.506,0,0,0,367.4,365.235Z" transform="translate(8 155)" fill="#36454e"/>
    <path id="Path_34" data-name="Path 34" d="M366.187,360.241a12.352,12.352,0,0,0-2.231,3.24c.147.027.808.175.808.175.635-1.347,1.84-2.7,1.568-2.562a.558.558,0,0,1-.514.064C365.651,361.117,366.887,359.6,366.187,360.241Z" transform="translate(8 155)" fill="#36454e"/>
    <path id="Path_35" data-name="Path 35" d="M366.692,359.868c.254-.154.083.753.083.753a3.653,3.653,0,0,1,1.687-1.069.384.384,0,0,0,.2-.407l-.7-.406C367.621,358.822,366.44,360.021,366.692,359.868Z" transform="translate(8 155)" fill="#36454e"/>
    <path id="Path_36" data-name="Path 36" d="M363.869,370.472a17.129,17.129,0,0,1-.466-3.182c.077-.814-.045.322-.211.624a3.433,3.433,0,0,1-.492.626,9.966,9.966,0,0,0,.625,2.126Z" transform="translate(8 155)" fill="#36454e"/>
    <path id="Path_37" data-name="Path 37" d="M361.948,366.034a1.011,1.011,0,0,1,.257-.052c.256-.04.209.075.244-.162.026-.177.122-.166.169-.15l.1.05a.49.49,0,0,1,.176.252l.514.108a2.792,2.792,0,0,1-.137-1.183l-1.606-.285a4.113,4.113,0,0,0-.092,1.258c.047.77.14-.069.218-.314a.124.124,0,0,1,.107-.081l0,.021c-.086.015-.255.785-.253.825a10.667,10.667,0,0,0,.714,3.344c.555.942-.523-1.726-.427-3.422C361.942,366.166,361.945,366.1,361.948,366.034Z" transform="translate(8 155)" fill="#36454e"/>
    <path id="Path_38" data-name="Path 38" d="M363.042,364.322s.183-.376.44-.469-.536-.2-.568-.2a1.529,1.529,0,0,0-.416.461c-.047.139.117.17.117.17a1.4,1.4,0,0,1,.259-.335c.118-.084-.14.356-.14.356Z" transform="translate(8 155)" fill="#36454e"/>
    <path id="Path_39" data-name="Path 39" d="M362.485,363.667a1.468,1.468,0,0,1,1.406-.139A1.018,1.018,0,0,0,362.485,363.667Z" transform="translate(8 155)" fill="#36454e"/>
    <path id="Path_40" data-name="Path 40" d="M361.371,364.559l-.2-.035s-.446,3.759,1.239,6.208A11.687,11.687,0,0,1,361.371,364.559Z" transform="translate(8 155)" fill="#36454e"/>
    <path id="Path_41" data-name="Path 41" d="M365.964,359.1s.253.609-.507.494c-.026,0-.757.86-.789.919s.561.354.564.4,2.032-2.161,2.316-2.255-.671-.255-.671-.255A5.76,5.76,0,0,0,365.964,359.1Z" transform="translate(8 155)" fill="#36454e"/>
    <path id="Path_42" data-name="Path 42" d="M363.668,360.479c-.1.324.644.114.644.114a12.6,12.6,0,0,1,2.259-2.2,2.763,2.763,0,0,0-1.009.1A8.3,8.3,0,0,0,363.668,360.479Z" transform="translate(8 155)" fill="#36454e"/>
    <path id="Path_43" data-name="Path 43" d="M362.395,362.277a3.819,3.819,0,0,0,.52.331c.446.262.083-.018.269-.241s.252-.278.429-.167-.058.356-.056.514.164.2.28.207.367-1.225.419-1.338.017.339.022.481.069.394.27.048a13.867,13.867,0,0,1,.827-1.118c-.472.605-.912.335-.9.214a.753.753,0,0,0-.042-.381c-.052-.117-.11.13-.325.381s-.4.2-.5-.055-.4-.2-.469-.182a4.381,4.381,0,0,0-.93,1.125c-.281.521-.917,1.582-.619,1.767C361.725,363.945,362.395,362.277,362.395,362.277Z" transform="translate(8 155)" fill="#36454e"/>
    <path id="Path_44" data-name="Path 44" d="M365.149,358.629s-2.038.318-3.52,3.22l.448.2S362.548,360.947,365.149,358.629Z" transform="translate(8 155)" fill="#36454e"/>
    <path id="Path_45" data-name="Path 45" d="M360.717,367.871c.012.081.024.164.035.246s.031.164.045.247c.028.165.073.326.111.488s.094.319.147.476.11.31.183.453c.033.074.067.147.1.22s.076.137.115.2a3.6,3.6,0,0,0,.246.388l.062.093.069.085.138.167a1.488,1.488,0,0,0,.144.153l.143.143a3.775,3.775,0,0,0,.59.447c.049.028.094.062.14.088s.1.047.142.07c.092.043.177.091.261.124.171.061.317.121.442.153.25.062.392.093.392.093s-.135-.059-.372-.158c-.117-.049-.253-.131-.41-.209-.079-.042-.156-.1-.241-.151l-.13-.082c-.044-.029-.084-.065-.128-.1a4.444,4.444,0,0,1-.532-.473,4.68,4.68,0,0,1-.5-.637,3.355,3.355,0,0,1-.22-.375c-.034-.067-.07-.131-.1-.2s-.061-.139-.093-.208c-.066-.137-.112-.289-.167-.433s-.1-.3-.136-.453-.081-.306-.11-.465c-.015-.078-.032-.155-.045-.234s-.025-.159-.038-.238c-.025-.156-.038-.314-.059-.469s-.031-.311-.038-.465c-.018-.307-.027-.6-.026-.89s.008-.553.022-.8.029-.479.047-.681.037-.38.053-.527c.036-.291.062-.457.062-.457s-.051.159-.119.449c-.034.144-.073.32-.109.522s-.075.434-.1.686c-.018.126-.028.258-.045.394s-.022.277-.029.423c-.016.29-.025.6-.015.915,0,.159.016.319.024.482S360.691,367.707,360.717,367.871Z" transform="translate(8 155)" fill="#36454e"/>
    <path id="Path_46" data-name="Path 46" d="M370.764,366.941c-.041.143-.1.285-.144.431-.1.291-.225.584-.36.875a8.594,8.594,0,0,1-.454.853c-.086.136-.172.273-.262.4s-.183.261-.283.38a6.908,6.908,0,0,1-1.244,1.228,6.772,6.772,0,0,1-.615.417,5.937,5.937,0,0,1-.986.48,4.057,4.057,0,0,1-.39.125s.037,0,.105-.013a2.8,2.8,0,0,0,.3-.062c.126-.033.279-.077.454-.141a4.446,4.446,0,0,0,.575-.25,5.987,5.987,0,0,0,1.326-.924,6.675,6.675,0,0,0,.645-.689c.105-.123.2-.259.3-.391s.185-.276.275-.416a8.547,8.547,0,0,0,.464-.89c.068-.151.138-.3.191-.455s.117-.3.162-.454.1-.3.135-.447.076-.293.111-.433c.057-.284.118-.552.15-.8.018-.125.035-.244.053-.357s.022-.223.03-.325.019-.2.027-.284.009-.169.014-.242c.014-.291.019-.457.019-.457s-.026.166-.066.455c-.01.071-.018.152-.032.239s-.032.18-.05.281-.036.205-.056.317-.049.229-.074.35c-.046.245-.122.5-.188.779Z" transform="translate(8 155)" fill="#36454e"/>
    <path id="Path_47" data-name="Path 47" d="M159.235,393.92l1.845,2.547.46.637.478.639.957,1.278c.319.423.637.857.959,1.271l.964,1.245c.161.207.319.416.484.62l.5.617.244.3.238.279.118.14.112.122.112.123c.038.041.075.083.108.112l.2.2c.059.045.117.1.171.142.049.026.1.066.139.092s.079.046.127.061a1.909,1.909,0,0,0,.354.1c.087.011.161.028.258.041l.307.032c.445.031.937.049,1.464.052l.79.005.423,0,.4.006,3.218.053c.538.01,1.072.014,1.612.031l1.622.055c2.16.075,4.329.137,6.473.243l3.223.145q1.612.069,3.222.155c2.146.11,4.292.247,6.436.371,4.288.277,8.577.546,12.861.846l3.214.22,3.211.246,6.422.5c4.281.351,8.563.671,12.838,1.07l6.415.578,3.208.292q1.6.144,3.206.3c4.274.429,8.549.831,12.819,1.294l4.639.5a49,49,0,0,1-.944-4.924,50.083,50.083,0,0,1-.438-7.66c.008-.312.015-.622.022-.933s.032-.632.048-.946.038-.63.058-.943.058-.621.086-.928c.05-.619.132-1.231.209-1.837s.179-1.2.271-1.8a43.863,43.863,0,0,1,1.68-6.731c.185-.52.369-1.033.548-1.538.2-.5.387-.99.588-1.469l.631-1.4.656-1.317.422-.771c-.007-.154-.016-.365-.03-.639-.016-.3-.028-.668-.041-1.1-.006-.217-.012-.451-.019-.7s0-.516-.005-.8,0-.574.011-.884c0-.153.008-.311.012-.472s.032-.331.048-.5a8.072,8.072,0,0,1,.511-2.15,9.928,9.928,0,0,1,3.179-4.175,11.8,11.8,0,0,1,1.221-.848,9.467,9.467,0,0,1,1.389-.692,15.245,15.245,0,0,1,3.165-.664c1.092-.139,2.219-.23,3.373-.3s2.333-.1,3.532-.112,2.418,0,3.653.047c.618.016,1.237.052,1.858.08.63.052,1.257.082,1.885.18a11.88,11.88,0,0,1,3.7,1.034,7.576,7.576,0,0,1,.853.485c.14.086.265.2.4.292a3.935,3.935,0,0,1,.381.311l.361.335c.12.111.223.239.335.358.227.237.418.5.62.755s.374.53.552.8.349.542.511.817c.331.549.647,1.1.966,1.652l.24.412c.077.139.152.28.227.421q.225.42.449.842t.448.838c.15.28.3.559.434.842q.838,1.689,1.661,3.349.8,1.662,1.587,3.281c1.045,2.153,2.033,4.244,2.981,6.223q.793,1.654,1.531,3.2c5.314,0,5.335-.084,6.018-1.634.832-1.888,7.491-16.749,10.724-23.962a4.956,4.956,0,0,1,.253-.644c.995-2.167.876-3.543-1.387-4.5a87.326,87.326,0,0,0-10.321-3.264q-2.305-.593-4.774-1.139c-2.464-.546-5.042-1.058-7.705-1.537-2.441-.438-4.954-.849-7.519-1.233a468.631,468.631,0,0,0-54.649-4.459,13.228,13.228,0,0,1-.132-2.073,23.552,23.552,0,0,1,.344-3.879c.089-.523.2-1.073.333-1.649a85.77,85.77,0,0,1,2.662-8.9l-.02-.014a11.717,11.717,0,0,0-1.153,1.684c-.053.105-.109.209-.161.315-.36.716-.676,1.452-.985,2.191-.149.371-.292.745-.438,1.118s-.275.752-.407,1.129-.253.759-.379,1.139-.246.761-.357,1.146l-.341,1.15-.316,1.157c-.216.77-.4,1.55-.6,2.328-.1.389-.189.778-.275,1.167l-.041.18a91.334,91.334,0,0,0-1.788,20.244c.063,4.425.352,8.844.765,13.253.2,2.116.426,4.228.655,6.342a23.351,23.351,0,0,0,.467,4.56c.084.8,1.033,1.2,1.189,2.028.079.283.1.593.161.882a37.137,37.137,0,0,0,.914,3.649,37.566,37.566,0,0,0,3.706,8.465l-14.795-.875-46.753-2.762-1.824-.109a1,1,0,0,1-.256-.014c-.617-.226-1.3-1.268-1.7-1.755a21.249,21.249,0,0,1-1.655-2.358,31.936,31.936,0,0,1-3.185-7.359l-19.5-.6a12.236,12.236,0,0,1,.76,1.064Zm83.312-.824v0c-.018-.1-.031-.2-.056-.3a1.262,1.262,0,0,0-.126-.306,9.008,9.008,0,0,0-.784-.917,1.056,1.056,0,0,1-.221-.487l-.02-.219,23.8.458c-.236.921-.469,1.866-.666,2.741Z" transform="translate(8 155)" fill="#36454e"/>
    <path id="Path_48" data-name="Path 48" d="M487.233,363.024l-1.446-.255s-.181.742.344.893l.007,0c-.177.148-.524.058-.553.173a5.531,5.531,0,0,1-.838-.148l0,.082a10.755,10.755,0,0,0,.3,2.291c.244.737.505-1.889.535-2.2-.008.242.173,1.572.173,1.572l.325-1.436a.876.876,0,0,0,.748-.379A.827.827,0,0,0,487.233,363.024Z" transform="translate(8 155)" fill="#36454e"/>
    <path id="Path_49" data-name="Path 49" d="M486.481,361.729a1.1,1.1,0,0,1,.769.6l.081.181a8.732,8.732,0,0,1,.921-1.9c.371-.386-.694.343-.986.521a1.085,1.085,0,0,1-.7.084A12.889,12.889,0,0,1,487.05,360c.174-.029.443-.04.392.194-.072.341-.086.463-.086.463s1.038-1.548,1.192-1.683-.713-.231-.868-.049c-.117.14-.385.479-.506.631-.014.017-.034.043-.056.073l0,0h0c-.3.411-1.155,1.846-1.155,1.846S485.837,361.615,486.481,361.729Z" transform="translate(8 155)" fill="#36454e"/>
    <path id="Path_50" data-name="Path 50" d="M488.351,360.649a9.428,9.428,0,0,0-.946,1.956.286.286,0,0,0-.018.094c0,.047.229.058.384.067s.142-.061.253-.376a9.839,9.839,0,0,1,1.038-1.433C489.543,360.3,488.77,360.15,488.351,360.649Z" transform="translate(8 155)" fill="#36454e"/>
    <path id="Path_51" data-name="Path 51" d="M490.5,362.5l-.786-.24-.12.856L491,363.3s.953-3.963-1.6-5.622l-.178.357A5.587,5.587,0,0,1,490.5,362.5Z" transform="translate(8 155)" fill="#36454e"/>
    <path id="Path_52" data-name="Path 52" d="M485.543,365.861c-.019.065-.264.935-.443.559,0,0,.223.743.33.978s.739.633.834.793a9.531,9.531,0,0,1-.456-1.849C485.813,365.65,485.605,365.658,485.543,365.861Z" transform="translate(8 155)" fill="#36454e"/>
    <path id="Path_53" data-name="Path 53" d="M488.142,362.846l.374.047s0,.034.056-.162.7-.924.276-.685A2.188,2.188,0,0,0,488.142,362.846Z" transform="translate(8 155)" fill="#36454e"/>
    <path id="Path_54" data-name="Path 54" d="M487.093,358.514a10.708,10.708,0,0,0-1.935,2.811c.128.022.7.15.7.15.552-1.168,1.6-2.344,1.361-2.222a.482.482,0,0,1-.446.055C486.629,359.273,487.7,357.958,487.093,358.514Z" transform="translate(8 155)" fill="#36454e"/>
    <path id="Path_55" data-name="Path 55" d="M487.532,358.189c.219-.133.072.654.072.654a3.136,3.136,0,0,1,1.463-.926.335.335,0,0,0,.176-.355l-.606-.352C488.336,357.283,487.314,358.323,487.532,358.189Z" transform="translate(8 155)" fill="#36454e"/>
    <path id="Path_56" data-name="Path 56" d="M484.5,364.6a2.949,2.949,0,0,1-.428.544,8.662,8.662,0,0,0,.543,1.844l.471-.167a14.869,14.869,0,0,1-.4-2.763C484.747,363.35,484.639,364.334,484.5,364.6Z" transform="translate(8 155)" fill="#36454e"/>
    <path id="Path_57" data-name="Path 57" d="M483.415,363.538a.914.914,0,0,1,.224-.045c.223-.034.182.065.212-.139.022-.155.106-.146.146-.131s.074.034.091.043a.416.416,0,0,1,.152.218l.447.094a2.41,2.41,0,0,1-.119-1.026l-1.394-.247a3.584,3.584,0,0,0-.079,1.092c.04.666.121-.06.19-.274a.1.1,0,0,1,.091-.07l0,.019c-.074.011-.221.68-.219.716a9.221,9.221,0,0,0,.619,2.9c.482.816-.452-1.5-.371-2.97C483.413,363.653,483.415,363.593,483.415,363.538Z" transform="translate(8 155)" fill="#36454e"/>
    <path id="Path_58" data-name="Path 58" d="M484.254,361.468a1.349,1.349,0,0,0-.36.4c-.042.122.1.146.1.146a1.212,1.212,0,0,1,.225-.29c.1-.072-.121.309-.121.309l.267.019s.158-.327.381-.406S484.282,361.468,484.254,361.468Z" transform="translate(8 155)" fill="#36454e"/>
    <path id="Path_59" data-name="Path 59" d="M483.885,361.482a1.28,1.28,0,0,1,1.217-.117A.883.883,0,0,0,483.885,361.482Z" transform="translate(8 155)" fill="#36454e"/>
    <path id="Path_60" data-name="Path 60" d="M482.915,362.259l-.173-.03s-.387,3.261,1.074,5.385A10.145,10.145,0,0,1,482.915,362.259Z" transform="translate(8 155)" fill="#36454e"/>
    <path id="Path_61" data-name="Path 61" d="M486.9,357.523s.219.529-.441.429c-.022,0-.656.745-.684.8s.486.306.488.345,1.764-1.874,2.01-1.957-.581-.219-.581-.219A4.882,4.882,0,0,0,486.9,357.523Z" transform="translate(8 155)" fill="#36454e"/>
    <path id="Path_62" data-name="Path 62" d="M484.909,358.719c-.085.282.559.1.559.1a10.9,10.9,0,0,1,1.959-1.91,2.385,2.385,0,0,0-.875.089A7.184,7.184,0,0,0,484.909,358.719Z" transform="translate(8 155)" fill="#36454e"/>
    <path id="Path_63" data-name="Path 63" d="M483.8,360.279a3.363,3.363,0,0,0,.451.288c.387.226.073-.016.233-.21s.218-.24.374-.145-.052.309-.049.446.142.169.243.18.317-1.063.362-1.162.015.3.02.419.06.341.234.041.717-.969.717-.969c-.41.525-.79.289-.777.185a.65.65,0,0,0-.037-.331c-.043-.1-.1.112-.282.331s-.344.175-.432-.049a.326.326,0,0,0-.408-.156,3.742,3.742,0,0,0-.806.975c-.244.452-.8,1.374-.537,1.534C483.223,361.725,483.8,360.279,483.8,360.279Z" transform="translate(8 155)" fill="#36454e"/>
    <path id="Path_64" data-name="Path 64" d="M486.193,357.115s-1.769.274-3.052,2.794l.387.176A10.927,10.927,0,0,1,486.193,357.115Z" transform="translate(8 155)" fill="#36454e"/>
    <path id="Path_65" data-name="Path 65" d="M484.71,368.579c-.067-.037-.135-.086-.208-.132l-.112-.071c-.038-.025-.074-.057-.112-.085a3.8,3.8,0,0,1-.461-.412,4.1,4.1,0,0,1-.432-.551A2.954,2.954,0,0,1,483.2,367c-.03-.057-.062-.113-.089-.171s-.053-.121-.081-.181c-.057-.118-.1-.249-.146-.374s-.082-.26-.117-.394-.071-.266-.094-.4c-.014-.068-.029-.135-.041-.2l-.03-.206c-.024-.135-.035-.273-.054-.407s-.026-.271-.033-.4c-.014-.266-.022-.524-.021-.771s.008-.481.018-.7.026-.415.041-.591.032-.329.046-.456c.03-.254.054-.4.054-.4s-.044.14-.1.389c-.028.125-.063.277-.093.454s-.066.375-.092.594c-.015.109-.026.224-.038.343s-.021.241-.027.367c-.013.252-.021.518-.012.794,0,.137.013.277.02.418s.023.285.046.425c.011.072.02.143.029.214s.028.143.04.214c.025.143.062.283.1.425s.082.276.128.412.1.27.158.394c.029.063.059.127.087.19s.068.119.1.178a3.575,3.575,0,0,0,.214.337l.055.079c.018.026.039.05.059.075.04.049.081.1.119.144a1.581,1.581,0,0,0,.125.133l.126.124a3.28,3.28,0,0,0,.51.388c.043.025.082.054.123.076l.122.062c.081.037.153.078.226.107.149.053.275.1.383.134.218.053.341.08.341.08s-.118-.052-.322-.138C484.965,368.716,484.849,368.646,484.71,368.579Z" transform="translate(8 155)" fill="#36454e"/>
    <path id="Path_66" data-name="Path 66" d="M491.493,362.463c-.014.077-.029.157-.043.244s-.033.178-.049.275-.043.2-.065.3c-.04.212-.105.437-.162.676-.036.119-.071.24-.109.364s-.083.247-.126.373a8.079,8.079,0,0,1-.311.759,7.837,7.837,0,0,1-.395.74c-.073.119-.149.237-.227.351s-.158.226-.246.328a5.951,5.951,0,0,1-.528.589,6.684,6.684,0,0,1-.551.478,5.582,5.582,0,0,1-.533.361,5.076,5.076,0,0,1-.855.415,3.075,3.075,0,0,1-.339.11s.031,0,.09-.012.148-.025.257-.054.243-.067.4-.121a4.422,4.422,0,0,0,.5-.218,5.092,5.092,0,0,0,1.149-.8,5.526,5.526,0,0,0,.56-.6c.093-.107.174-.225.259-.339s.161-.24.239-.361a7.661,7.661,0,0,0,.4-.772c.059-.131.118-.261.164-.395s.1-.263.141-.395.087-.258.117-.387.065-.254.1-.375c.05-.247.1-.479.131-.7.016-.108.032-.213.045-.31s.019-.194.027-.282.016-.172.023-.247.008-.145.012-.209c.012-.253.016-.4.016-.4s-.023.145-.056.4C491.512,362.319,491.505,362.388,491.493,362.463Z" transform="translate(8 155)" fill="#36454e"/>
    <path id="Path_67" data-name="Path 67" d="M504.481,362.828c-.03.148-.122.755.386.9l.012,0c-.2.149-.584.046-.615.164a6.782,6.782,0,0,1-.928-.179l0,.086a10.519,10.519,0,0,0,.324,2.391c.267.774.564-1.95.6-2.267-.009.25.188,1.639.188,1.639l.363-1.483a.953.953,0,0,0,.828-.373.841.841,0,0,0,.45-.612l-1.6-.308Z" transform="translate(8 155)" fill="#36454e"/>
    <path id="Path_68" data-name="Path 68" d="M506.129,361.139a1.253,1.253,0,0,1-.776.067,12.707,12.707,0,0,1,.542-1.255c.193-.027.49-.031.434.212-.082.351-.1.478-.1.478s1.153-1.579,1.324-1.717-.787-.26-.959-.074c-.131.143-.427.485-.56.642-.017.018-.039.044-.066.075l0,0h0c-.335.42-1.282,1.887-1.282,1.887s-.136.138.575.275a1.244,1.244,0,0,1,.848.645l.089.192a8.572,8.572,0,0,1,1.026-1.943C507.635,360.234,506.453,360.962,506.129,361.139Z" transform="translate(8 155)" fill="#36454e"/>
    <path id="Path_69" data-name="Path 69" d="M508.11,358.585a14.9,14.9,0,0,0-1.115,1.205s-.458.547-.273.395,1.052-.215,1.1-.272.363-.386.481-.512S508.521,358.225,508.11,358.585Z" transform="translate(8 155)" fill="#36454e"/>
    <path id="Path_70" data-name="Path 70" d="M507.331,360.664a9.2,9.2,0,0,0-1.052,2.006.275.275,0,0,0-.02.1c0,.049.252.068.424.081s.156-.059.281-.384a9.781,9.781,0,0,1,1.153-1.46C508.651,360.341,507.8,360.157,507.331,360.664Z" transform="translate(8 155)" fill="#36454e"/>
    <path id="Path_71" data-name="Path 71" d="M507.875,362.131a2.258,2.258,0,0,0-.783.811l.414.06s0,.035.063-.168S508.345,361.894,507.875,362.131Z" transform="translate(8 155)" fill="#36454e"/>
    <path id="Path_72" data-name="Path 72" d="M506.085,359.18a.551.551,0,0,1-.492.044c-.16-.041,1.03-1.377.355-.818a10.806,10.806,0,0,0-2.149,2.869c.143.025.776.177.776.177C505.188,360.252,506.346,359.061,506.085,359.18Z" transform="translate(8 155)" fill="#36454e"/>
    <path id="Path_73" data-name="Path 73" d="M503.143,362.535l-1.541-.3a3.461,3.461,0,0,0-.092,1.132c.043.7.135-.058.211-.278a.111.111,0,0,1,.1-.07l0,.019c-.082.01-.247.7-.244.739a9.235,9.235,0,0,0,.674,3.032c.531.864-.5-1.567-.4-3.1,0-.068.008-.13.011-.186a.871.871,0,0,1,.247-.041c.246-.03.2.072.235-.14.025-.16.117-.148.161-.131s.081.038.1.048a.447.447,0,0,1,.168.231l.494.11A2.4,2.4,0,0,1,503.143,362.535Z" transform="translate(8 155)" fill="#36454e"/>
    <path id="Path_74" data-name="Path 74" d="M501.317,362.183l-.193-.037s-.438,3.379,1.169,5.63A10.151,10.151,0,0,1,501.317,362.183Z" transform="translate(8 155)" fill="#36454e"/>
    <path id="Path_75" data-name="Path 75" d="M506.063,356.193a4.43,4.43,0,0,0-1.454.3,5.582,5.582,0,0,0-1.509.852,6.449,6.449,0,0,0-1.234,1.252,8.168,8.168,0,0,0-.5.735l-.206.395-.1.2-.087.2c-.057.139-.115.275-.169.413l-.137.429c-.023.071-.047.143-.067.213l-.05.213-.1.431-.068.438-.032.219c-.009.073-.012.148-.018.221l-.031.442,0,.439v.221l.019.219c.013.145.022.291.039.436a8.177,8.177,0,0,0,.162.856l.052.211a1.951,1.951,0,0,0,.058.208c.046.136.092.273.137.41s.113.264.166.395l.086.2.1.188c.07.123.128.254.208.371l.235.356c.079.117.176.221.263.333.043.053.086.111.133.162l.15.149.149.148.075.073.083.065.328.259c.115.077.236.146.352.219a2.373,2.373,0,0,0,.373.189l.192.087.1.041.094.03.37.114.046.013.025.006.013,0,.025,0,.1.017.2.032.2.031c.065.009.131.006.2.01.13.006.262.01.391.011.128-.014.257-.026.384-.038.064-.008.128-.011.191-.022l.184-.041c.122-.026.244-.053.363-.085a5.094,5.094,0,0,0,1.284-.6,6.329,6.329,0,0,0,1.74-1.692,8.148,8.148,0,0,0,.888-1.624c.107-.233.169-.455.235-.641.031-.094.064-.18.088-.261s.039-.155.057-.221c.069-.264.1-.4.1-.4h0s.027-.145.079-.412c.012-.069.026-.143.042-.226s.021-.175.031-.273a6.741,6.741,0,0,0,.058-.68,7.881,7.881,0,0,0-.123-1.848,6.75,6.75,0,0,0-.215-.847c-.248-.966-.28-1.849.239-2.246l.094-.061c.017-.009.031-.02.049-.029a.788.788,0,0,0,.108-.065c1.333-.758,3.407-1.078,2.152-1.146A53.386,53.386,0,0,0,506.063,356.193Zm4.728,4.452c.024.084.051.165.071.247s.033.166.049.245a4.346,4.346,0,0,1,.079.465c.015.152.032.3.047.436s0,.272.007.4a4.855,4.855,0,0,1-.027.675c-.009.1-.015.188-.026.271s-.026.158-.037.224c-.045.269-.07.41-.07.41h0s-.037.141-.109.4c-.019.067-.039.14-.061.221s-.057.164-.091.257a4.945,4.945,0,0,1-.258.623c-.056.113-.11.235-.175.359s-.148.244-.226.375a4.04,4.04,0,0,1-.266.391l-.147.2c-.051.069-.111.13-.167.2a6.225,6.225,0,0,1-.959.882,5.722,5.722,0,0,0,.6-.587c.1-.108.192-.228.287-.344s.179-.246.266-.371a7.343,7.343,0,0,0,.448-.79c.064-.134.132-.268.182-.406s.115-.269.158-.406.1-.266.13-.4.073-.262.109-.388c.055-.255.115-.494.145-.719.019-.112.037-.22.052-.322s.022-.2.031-.29.019-.177.027-.257.01-.152.013-.218c.014-.261.019-.412.019-.412s-.025.15-.063.408c-.01.066-.018.138-.033.216s-.03.161-.048.251-.036.185-.054.286-.048.2-.073.314c-.045.219-.118.451-.182.7-.04.121-.081.246-.121.374s-.093.255-.141.385a8.1,8.1,0,0,1-.348.78,7.016,7.016,0,0,1-.438.76c-.082.119-.165.241-.252.356s-.176.231-.273.336a6.63,6.63,0,0,1-.586.6,6.295,6.295,0,0,1-1.2.841,5.652,5.652,0,0,1-.947.408,3.582,3.582,0,0,1-.376.1s.035,0,.1-.009.163-.02.284-.048.27-.063.437-.117a4.238,4.238,0,0,0,.551-.21,5.109,5.109,0,0,0,.6-.321c-.047.028-.082.063-.129.089-.092.05-.183.107-.278.153s-.2.082-.3.127l-.15.069-.156.051-.316.1c-.109.029-.219.047-.33.072l-.167.039c-.055.011-.114.013-.169.02l-.347.037-.353,0c-.058,0-.118,0-.177,0l-.177-.022-.18-.022-.091-.012-.021,0-.013,0c-.009,0,0,0,0,0l-.04-.011-.377-.091-.094-.023-.085-.033-.169-.064a1.982,1.982,0,0,1-.342-.149c-.112-.059-.229-.115-.339-.181l-.311-.212c-.11-.092-.219-.193-.331-.3a4.481,4.481,0,0,1-.474-.587,3.443,3.443,0,0,1-.21-.343c-.032-.061-.068-.12-.1-.182s-.058-.127-.089-.189c-.062-.125-.105-.262-.159-.394s-.09-.274-.128-.412-.077-.279-.1-.422c-.016-.071-.033-.142-.044-.213s-.024-.144-.035-.215c-.025-.141-.036-.285-.056-.426s-.028-.282-.034-.418c-.017-.279-.026-.547-.023-.8s.01-.5.023-.723.03-.431.049-.614.035-.342.052-.472c.033-.263.06-.413.06-.413s-.05.144-.115.4c-.034.129-.072.288-.107.469s-.073.389-.1.615c-.017.114-.028.232-.043.356s-.024.249-.031.38c-.014.262-.026.54-.016.825,0,.144.014.289.021.436s.024.295.048.444c.011.074.023.149.034.224,0,.032.012.064.018.1-.016-.063-.035-.126-.05-.188a7.168,7.168,0,0,1,.052-3.392l.123-.412.062-.209c.024-.067.051-.131.077-.2l.153-.392.184-.382.091-.19.107-.184.093-.16.378.173a10.567,10.567,0,0,1,2.728-2.826c.092-.022.182-.044.271-.063a7.576,7.576,0,0,0-1.467,1.507c-.1.291.617.12.617.12a11.166,11.166,0,0,1,1.894-1.732c.087,0,.172,0,.257.009a2.792,2.792,0,0,0-.562.417s.24.554-.489.433c-.023-.005-.728.756-.758.809s.537.333.538.373,1.607-1.553,2.112-1.91c.115.029.228.062.338.1-.441.257-1.253,1.021-1.044.907.241-.132.075.682.075.682a3.454,3.454,0,0,1,1.621-.923.292.292,0,0,0,.2-.275c.05.028.1.057.147.088l-.173.319a5.718,5.718,0,0,1,1.4,4.674l-.868-.271-.134.887,1.551.237a6.761,6.761,0,0,0-.522-4.645l.318.344a8.033,8.033,0,0,1,.581.951Q510.723,360.4,510.791,360.645Z" transform="translate(8 155)" fill="#36454e"/>
    <path id="Path_76" data-name="Path 76" d="M347.193,374.333,362.4,373.9c-7.3-5.346-2.506-15.008.609-16.378l-13.849.34C354.3,364.356,350.4,372.072,347.193,374.333Z" transform="translate(8 155)" fill="#36454e"/>
    <path id="Path_77" data-name="Path 77" d="M503.24,355.993l-11.948-.132c5.357,3.788,2.708,12.334-.985,14.22l12.469-.281C496.889,366.541,499.063,358.409,503.24,355.993Z" transform="translate(8 155)" fill="#36454e"/>
    <path id="Path_78" data-name="Path 78" d="M142.768,387.686a3.3,3.3,0,0,0-1.035-1.275,2.027,2.027,0,0,0-.319-.18l-.167-.055-.084-.027c-.028-.007-.057-.009-.084-.014l-.169-.027-.007,0c.008,0-.022,0,.014,0h-.193c-.06,0-.1.012-.154.015s-.109.022-.162.032a2.5,2.5,0,0,0-1.091.656,4.8,4.8,0,0,0-.664.83c-.156.254-.274.464-.346.611l-.112.224.056-.246a5.462,5.462,0,0,1,.221-.683,4.174,4.174,0,0,1,.547-.994,3.626,3.626,0,0,1,.491-.531,2.551,2.551,0,0,1,.715-.43c.073-.023.139-.052.221-.071s.169-.04.242-.05l.1-.011.049-.007.027,0,.013,0h.035l.247.008c.041,0,.084,0,.126.006l.123.026c.082.02.166.036.249.059a2.786,2.786,0,0,1,.47.21c.075.043.153.085.225.133s.138.105.207.156a1.566,1.566,0,0,1,.2.173l.19.182c.036.04.071.083.1.124-.136-1.578-.338-3.109-.6-4.577l-.018.076c-.037.17-.075.34-.111.5s-.055.33-.08.483-.051.3-.067.439c-.066.548-.111.914-.111.914l-.2-.9c-.033-.137-.054-.286-.084-.444s-.058-.326-.088-.5-.042-.361-.065-.548l-.015-.141-.006-.146-.01-.294a4.838,4.838,0,0,1,.012-.59c.005-.1.008-.2.017-.29s.023-.186.033-.277c.021-.182.042-.361.069-.518s.049-.315.07-.455c.01-.068.021-.131.03-.192a25.488,25.488,0,0,0-4.075-9.242c-.038.285-.078.6-.119.937-.1.788-.2,1.709-.276,2.7-.04.491-.075,1-.1,1.514-.012.257-.022.519-.023.776l-.007.39.008.385c0,.261.022.509.038.762s.049.524.074.785c.054.516.113,1.024.184,1.517s.145.964.234,1.41.184.864.289,1.246a11.7,11.7,0,0,0,.641,1.812c.094.212.174.377.232.489s.088.172.088.172-.039-.054-.111-.157-.179-.254-.306-.452a12.221,12.221,0,0,1-.918-1.731c-.164-.373-.325-.784-.481-1.224s-.307-.907-.453-1.4-.282-.994-.415-1.513c-.064-.259-.13-.505-.191-.78s-.113-.556-.147-.829l-.059-.413-.046-.41c-.033-.272-.054-.543-.075-.811-.044-.537-.074-1.064-.1-1.574-.045-1.017-.058-1.965-.062-2.778v-.651a18.5,18.5,0,0,0-4.309,7.321c.01.036.021.074.034.117.078.26.205.638.388,1.085.091.224.2.465.315.718s.25.517.4.783.3.539.488.831.359.578.541.869c.724,1.166,1.45,2.325,2.017,3.182.139.216.272.409.389.582s.219.324.307.446l.273.383s-.127-.116-.346-.321c-.112-.1-.243-.229-.392-.375s-.32-.311-.5-.494c-.732-.729-1.685-1.724-2.631-2.72l-.705-.743c-.226-.24-.473-.494-.695-.748s-.432-.507-.624-.751c-.03-.038-.058-.076-.086-.113a44.063,44.063,0,0,0-1.324,9l.182.065c.168.06.352.125.544.2s.391.126.6.2l1.309.418c.224.069.452.125.675.187s.445.12.658.179l.62.167.558.115c.7.143,1.167.236,1.167.236l-1.187.124-.583.059-.648.025-.7.029c-.237.007-.481.021-.722.022-.486,0-.973-.005-1.429-.007-.227,0-.456,0-.659-.008-.156-.005-.3-.012-.44-.017,0,.09,0,.179,0,.268a46.055,46.055,0,0,0,1.047,9.884c.083-.119.176-.235.265-.357s.206-.275.32-.407.225-.273.341-.411.242-.267.365-.405.253-.264.38-.4.257-.263.391-.389c.264-.256.537-.5.805-.735s.541-.461.808-.669l.391-.308.381-.287c.246-.187.486-.355.7-.511s.423-.3.6-.42.337-.229.467-.316c.258-.174.408-.273.408-.273l-.345.349c-.109.11-.242.245-.393.4s-.32.333-.5.53-.378.4-.579.634c-.1.115-.2.231-.308.35s-.208.247-.316.373c-.214.251-.422.521-.634.791s-.416.554-.61.841c-.1.141-.2.285-.287.431s-.188.285-.271.432-.169.288-.253.431-.154.287-.229.428-.142.281-.208.419-.133.268-.186.4c-.113.266-.221.514-.3.751l-.124.336q-.048.158-.093.3c-.028.093-.056.178-.081.26s-.047.171-.068.244-.033.117-.046.168c1.319,4.235,3.269,7.539,5.582,9.183,0-.064.007-.132.011-.207.024-.435.048-1.045.1-1.8.024-.373.05-.779.077-1.206s.074-.881.114-1.347c.02-.235.042-.471.062-.711s.056-.483.085-.728c.063-.489.1-.986.185-1.48s.153-.989.228-1.476.187-.957.276-1.416q.067-.344.135-.675c.046-.218.108-.43.157-.639.107-.414.207-.806.3-1.167s.2-.685.286-.975.17-.539.236-.745c.129-.413.2-.648.2-.648l-.107.67c-.034.214-.076.473-.123.77s-.111.629-.141,1-.078.764-.122,1.184c-.02.21-.05.426-.062.645s-.023.448-.035.679c-.021.459-.058.93-.065,1.412s-.009.972-.012,1.46.022.979.033,1.46q.011.359.022.713c.012.234.027.468.041.7.028.457.054.9.081,1.319s.066.816.1,1.181c0,.061.01.118.015.177a30.2,30.2,0,0,0,3.6-9.788c-.009-.077-.019-.156-.029-.236-.021-.174-.043-.354-.065-.537s-.033-.37-.051-.555-.03-.373-.045-.555-.015-.363-.022-.538-.018-.342-.015-.5v-.449c0-.14.009-.267.012-.38s.008-.211.016-.292c.009-.162.022-.254.022-.254s0,.092.015.254c.006.08.015.177.028.289s.024.237.046.375.042.283.066.439.057.32.088.489.067.343.1.52c.037.152.072.3.109.46.247-1.452.437-2.963.561-4.519a2,2,0,0,1-.214.238l-.193.188c-.072.057-.144.112-.215.167l-.107.08-.118.07c-.079.046-.156.092-.236.132a2.618,2.618,0,0,1-.523.181l-.143.029a.612.612,0,0,1-.128.018l-.219.011-.054,0-.043,0,0,0h-.016l-.033,0-.127-.013a1.266,1.266,0,0,1-.248-.048,2.414,2.414,0,0,1-.839-.4,3.571,3.571,0,0,1-.975-1.163,5.063,5.063,0,0,1-.423-1.048,4,4,0,0,1-.1-.4c-.025-.119-.045-.218-.056-.3-.026-.162-.037-.249-.037-.249l.093.233c.059.154.155.37.29.639a6.268,6.268,0,0,0,.564.91,3.506,3.506,0,0,0,.97.885,1.777,1.777,0,0,0,.651.221.9.9,0,0,0,.172.014h.11l.044-.006.218-.029a.233.233,0,0,0,.088-.023l.073-.027a2.026,2.026,0,0,0,.323-.146l.158-.11.08-.055.074-.068.148-.137.139-.155a3.94,3.94,0,0,0,.261-.339,5.763,5.763,0,0,0,.727-1.686l.009-.035q.034-.991.036-2,0-1.224-.054-2.428A6.261,6.261,0,0,0,142.768,387.686Z" transform="translate(8 155)" fill="#36454e"/>
    <path id="Path_79" data-name="Path 79" d="M325.648,391.4c.933.086,2.064.175,3.364.27s2.764.207,4.362.31l2.5.167c.877.029,1.764.045,2.688.068s1.87.054,2.835.062,1.949,0,2.951,0c2-.01,4.077.01,6.18-.035l6.377-.114c2.136-.052,4.271-.112,6.373-.18s4.171-.15,6.172-.228,3.936-.171,5.769-.258,3.569-.185,5.169-.277,3.066-.182,4.365-.269,2.433-.168,3.367-.237,1.665-.131,2.165-.171l.766-.065-.769-.018h-.1c-55.893-1.25-67.453.642-67.453.642l.763.091C323.986,391.215,324.716,391.3,325.648,391.4Z" transform="translate(8 155)" fill="#36454e"/>
    <path id="Path_80" data-name="Path 80" d="M394.167,403.078c.159-.33.354-.736.582-1.212.117-.237.242-.493.375-.765s.265-.563.411-.869c.295-.611.621-1.287.983-2.015,1.5-2.94,2.828-4.913,11.191-4.913s53.49-1.188,56.016-1.291,3.172.041,2.722,2.357c0,.019-.006.036-.011.055-.2,1.02-.381,1.957-.539,2.775l-.185.948c-.051.3-.1.58-.147.841-.092.522-.168.967-.232,1.326s-.1.638-.133.825-.044.284-.044.284l.31.1,1.293-4.056c.413-1.289.911-2.856,1.485-4.653q.215-.674.444-1.39a12.184,12.184,0,0,0,.41-1.518,4.655,4.655,0,0,0,.091-.839,2.607,2.607,0,0,0-.135-.895,1.879,1.879,0,0,0-.532-.792,2.812,2.812,0,0,0-.806-.488,7.364,7.364,0,0,0-1.788-.426c-.61-.076-1.231-.115-1.862-.138s-1.275-.031-1.918-.019l-1.968.021c-1.329.009-2.7.041-4.094.065l-4.274.081-8.946.2-9.234.23-9.234.3c-3.045.11-6.042.2-8.943.329l-2.156.09c-.713.033-1.417.05-2.117.1s-1.392.085-2.074.125c-.343.024-.683.038-1.02.066l-1,.1a33.055,33.055,0,0,0-3.861.587,10.073,10.073,0,0,0-3.422,1.392,6.949,6.949,0,0,0-2.242,2.573l-.1.18-.023.045-.015.027-.01.023-.039.09-.158.356c-.1.236-.206.467-.307.7-.209.453-.375.917-.555,1.356-.7,1.765-1.233,3.318-1.676,4.6s-.763,2.3-.983,2.988-.333,1.063-.333,1.063l.309.1S393.848,403.735,394.167,403.078Z" transform="translate(8 155)" fill="#36454e"/>
    <path id="Path_81" data-name="Path 81" d="M186.037,330.946c1.248.024,2.333,0,3.225-.03.436-.011.818-.029,1.157-.048q1.059,0,2.218,0t2.389,0h.137c17.83-.028,48.8-.63,48.8-.63s-5.253-21.537-6.9-28.058-1.839-9.332-10.311-8.691-29.1,3.293-44.068,8.637-16.694,7.963-14.055,13.094c1.592,3.091,6.832,9.525,10.814,13.029a46.141,46.141,0,0,1-7.548-2l-.488-.179c-.117-.044-.237-.088-.348-.132l0,.005a27.73,27.73,0,0,0-4.619-1.192l-.764-.12-.767-.1c-.256-.036-.513-.061-.77-.087s-.507-.055-.78-.071c-1.011-.075-2.017-.161-3.058-.2-1.035-.057-2.062-.059-3.087-.079-1.026.009-2.048.019-3.06.071-2.025.084-4.011.266-5.918.514-.956.116-1.889.259-2.8.4-.456.069-.9.154-1.35.229-.322.057-.636.112-.952.17h-.025l-.106.023c-.076.014-.155.026-.231.041-1.726.326-3.348.663-4.841,1-.744.17-1.461.326-2.138.489l-1.92.465c-.526.126-1.015.249-1.478.366-4.033.913-7.059,1.634-4.345,1.15l.729-.086c.472-.061,1.17-.14,2.051-.263.807-.108,1.779-.235,2.876-.392,10.086-1.09,28.411-2.3,33.694-.467a43.065,43.065,0,0,0,15.124,2.953C183.795,330.873,184.978,330.922,186.037,330.946Zm48.439-29.824c.749,2.793,4.251,16.92,6.816,26.376l-1.8.048c-3.02-1.772-5.941-3.434-8.791-5.009-.1,1.908-.16,3.662-.182,5.242l-.976.025a301.077,301.077,0,0,1,2.7-31.307C233.525,297.612,234.014,299.395,234.476,301.122Zm-46.6,1.379c2.472-.647,8.377-2.14,14.164-3.221,7.579-1.417,21.6-3.684,26.208-3.906a6.067,6.067,0,0,1,3.249.607c-1.015,8.007-2.027,17.677-2.478,25.632-13.756-7.508-26-13.057-40.132-19.234a249.488,249.488,0,0,0-3.524,26.576l-.979.025A247.332,247.332,0,0,1,187.871,302.5Z" transform="translate(8 155)" fill="#36454e"/>
    <path id="Path_82" data-name="Path 82" d="M432.67,354.409l-30.03.185-13.512.084c.393.767.893,2.5-.143,5.537l43.291-.489C432.954,357.7,433.266,355.664,432.67,354.409Z" transform="translate(8 155)" fill="#d24a43"/>
    <path id="Path_83" data-name="Path 83" d="M430.793,352.059a.081.081,0,0,0-.018-.019,21.143,21.143,0,0,0-1.707-1.494.239.239,0,0,1-.035-.028A35.61,35.61,0,0,0,426,348.4l-.011-.007a66.431,66.431,0,0,0-5.9-3.259c-.022-.012-.046-.022-.068-.034-1.958-.967-4.063-1.919-6.267-2.853-.044-.017-.086-.036-.131-.053-.15-.065-.3-.128-.452-.192l-.226-.094q-1.011-.422-2.047-.836l-.022-.01q-1.366-.546-2.767-1.083l-.063-.024-.552-.21-.166-.064-.676-.254-.044-.016-.647-.242c-.027-.009-.052-.018-.079-.029l-.417-.153-.312-.115c-.43-.159-.862-.315-1.293-.47-.057-.021-.113-.04-.169-.062l-.282-.1c-.152-.055-.3-.11-.456-.163l-.062-.022-.674-.239c-.06-.022-.12-.042-.182-.063q-.645-.228-1.294-.453c-.082-.028-.166-.056-.249-.086l-.494-.17,0,0-.734-.25-.238-.081-.5-.171-.119-.039-.623-.21q-.74-.247-1.479-.492l-.2-.064q-1.011-.331-2.019-.656c-.088-.029-.175-.056-.264-.084q-.972-.312-1.936-.617l-.2-.06c-1.493-.47-2.969-.923-4.416-1.36-1.731-.521-3.422-1.019-5.052-1.49l-.149-.043c-3.069-.884-5.91-1.669-8.414-2.343-6.168-1.657-10.245-2.625-10.248-2.625h-.033l-30.675.81s44.817,12.354,55.071,25.413c4.862-.011,24.324-.065,43.5-.119C431.125,352.395,430.964,352.227,430.793,352.059Z" transform="translate(8 155)" fill="#d24a43"/>
    <path id="Path_84" data-name="Path 84" d="M440.479,354.36a10.9,10.9,0,0,1-.27,5.276l32.976-.372a13.208,13.208,0,0,0,1.454-5.122C464.362,354.209,452.454,354.285,440.479,354.36Z" transform="translate(8 155)" fill="#d24a43"/>
    <path id="Path_85" data-name="Path 85" d="M439.572,352.539l14.049-.04c.961,0,1.9,0,2.819-.007l5.1-.014c6.879-.019,11.523-.031,12.078-.031-30.867-18.982-83.93-26.335-83.93-26.335H378.793l-6.411.143C406.48,335.194,432.783,344.226,439.572,352.539Z" transform="translate(8 155)" fill="#d24a43"/>
    <path id="Path_98" data-name="Path 98" d="M276.727,366.818h0l.006,0Z" transform="translate(8 155)" fill="#36454e"/>
    <path id="Path_99" data-name="Path 99" d="M522.923,384.1a13.551,13.551,0,0,0-.831-4.564c-.783-1.216-7.625-2.778-7.667-2.788l-.191-.068a.969.969,0,0,0,.585-.993c0-1.149-.762-1.236-1.649-1.236a105.258,105.258,0,0,1,2.631-12.639c.767-2.107,1.537-4.008,2.048-5.265.2-.491.357-.882.46-1.149a2.806,2.806,0,0,0-.183-2.545,3.552,3.552,0,0,0-2.082-1.469c-9.105-4.675-24.217-11.2-45.462-16.441-17.174-4.233-53.536-8.293-69.708-9.9l-2.122-.209-6.029-6.857c-8.853-10.07-24.348-27.689-24.422-27.763a8.921,8.921,0,0,0-2.114-1.473,19.658,19.658,0,0,0-3.88-1.466,45.427,45.427,0,0,0-5.49-1.114q-1.552-.213-3.271-.452c-1.145-.143-2.343-.306-3.6-.45-2.5-.3-5.212-.59-8.115-.851s-5.99-.508-9.25-.724c-2.22-.149-25.9-1-33.421-.964-4.107.014-8.327.066-12.637.156-2.156.046-4.335.1-6.535.17s-4.418.155-6.658.247q-6.714.279-13.629.676c-4.6.265-9.26.565-13.951.934s-9.415.766-14.157,1.215-9.5.944-14.252,1.518c-1.189.144-2.378.3-3.569.466q-.892.125-1.789.26l-.907.143-.444.076-.229.039-.222.041c-2.365.421-4.717.9-7.055,1.408-4.675,1.015-9.293,2.192-13.84,3.472-1.133.331-2.269.647-3.394.991l-1.687.508-1.677.524c-1.118.347-2.224.724-3.33,1.084s-2.2.745-3.3,1.129-2.192.77-3.259,1.171l-1.607.592c-.555.215-1.088.42-1.628.636-2.139.868-4.211,1.8-6.252,2.741-8.157,3.786-15.835,7.773-23.14,11.508q-5.471,2.81-10.625,5.458c-3.429,1.764-6.745,3.457-9.945,5.046s-6.28,3.076-9.245,4.375c-.565.249-1.116.481-1.665.7l-1.476.571-.149.055-1.1.392-4.238,1.507c-1.372.488-2.7.96-3.978,1.429s-2.513.94-3.681,1.484c-.468.223-.921.463-1.355.724l.066-.065s-1.489.929-3.585,2.5l0,0h0a48.974,48.974,0,0,0-10.282,10,.243.243,0,0,0-.042.1c-1.973,4.808-1.513,10.379.121,15.85-.061,0-.12,0-.181.011a6.2,6.2,0,0,0-1.171.2,3.808,3.808,0,0,0-.767.306,3.146,3.146,0,0,0-.927.743,2.954,2.954,0,0,0-.41.624,3,3,0,0,0-.241.685c-.017.076-.015.137-.027.209a3.993,3.993,0,0,0-.042.946,5.494,5.494,0,0,0,.134.8c.052.232.113.434.175.623.249.752.5,1.328.734,1.944.254.66.533,1.271.814,1.89s.607,1.207.922,1.8.67,1.172,1.015,1.752.725,1.136,1.1,1.7l.281.416.293.408.591.807c.388.537.806,1.05,1.22,1.554.208.251.412.5.625.746s.43.479.644.715.41.447.616.666l.028.03.66.659.659.636c.223.2.447.4.669.6s.442.386.664.57.447.358.668.53.44.34.661.5.44.31.659.456c.43.3.865.559,1.282.8s.829.449,1.219.637.771.338,1.122.475.689.232.992.316c.2.055.388.1.561.13l21.842,6.571c-.081-1.054-.133-2.107-.153-3.152-.017-.487-.01-.974-.016-1.458v-.551l0-.179c.006-.239.013-.475.019-.713l.018-.707q.018-.359.035-.712c0-.045.006-.089.007-.133l-.371-.9-22.2-5.633,21.759,4.559-.176-.428-.61-1.49c-.2-.507-.4-1.014-.579-1.524q-.56-1.53-1.02-3.1c-.308-1.043-.585-2.1-.819-3.172-.124-.533-.221-1.076-.323-1.618-.084-.547-.18-1.091-.234-1.647l-.048-.416-.012-.1-.009-.115-.016-.2c-.011-.137-.023-.261-.03-.408l-.021-.434a15.6,15.6,0,0,1,.03-1.727,10.672,10.672,0,0,1,.275-1.761,7.926,7.926,0,0,1,.655-1.757,5.934,5.934,0,0,1,1.2-1.585,5.689,5.689,0,0,1,1.7-1.1,7.133,7.133,0,0,1,1.883-.493c.312-.039.625-.058.933-.066l.805-.02,3.219-.075,3.219-.073,3.218-.054,3.219-.056,1.61-.027.8-.014h.051c-.044,0,.117,0,.119,0l.1,0,.2.005.4.011a11.477,11.477,0,0,1,3.69.834,13.462,13.462,0,0,1,3.173,1.842,16.348,16.348,0,0,1,2.57,2.491,21.258,21.258,0,0,1,2.017,2.876l1.529,2.892,1.468,2.908,2.9,5.781c.48.97.956,1.888,1.433,2.824l.356.7.044.088.013.024.1.174.026.043.011.013.02.023.017.026.009.013.019.023a4.538,4.538,0,0,0,.362.408c.155.155.326.318.528.507.024.022.047.044.071.064l20.6.633c-.9-3.384-1.474-6.878-2.031-10.211a160.269,160.269,0,0,1-2.233-26.238,13.36,13.36,0,0,1,.363-4.45h0s-9.6-3.641-28.411-4.361-29.582.164-38.809,1.288c-.373.045-.753.089-1.137.132q-.539.062-1.087.119c-5.478.572-11.355.9-11.355.9a13.036,13.036,0,0,1-1.465.124c-2.594.039-.981-1.439,1.094-3.059.935-.73,1.962-1.488,2.742-2.15a38.821,38.821,0,0,1,5.582-3.889c3.151-1.63,7.086-3.023,12.291-5.269s20.643-10.1,30.524-15.3,21.143-10.731,26.243-12.75a230.162,230.162,0,0,1,31.449-9.775c13.919-3.177,34.957-5.1,44.307-5.737S297,284.2,329.048,286.151s34.819,2.072,37.46,3.354a5.256,5.256,0,0,1,1.181.912c-53.717-6.762-112.843,1.032-119.159,1.591-6.356.56-6.216,5.391-4.566,12.446s6.189,24.558,6.189,24.558L363.4,326.458h.011l8.967-.2,6.411-.143,15.848-.358c2.732.24,8.338.783,15.424,1.548l.008,0c4.008.434,8.492.939,13.2,1.5,18.557,2.516,38.946,6.146,49.648,9.132,6.922,1.931,15.241,4.952,22.326,7.7.227.091.469.186.742.289l.042.017.73.286c6.614,2.654,7.515,4.979,5.539,4.983-2.955.015-6.582.036-11.04.062-4.712-.481-13.092-2.722-22.362-6.37-11.8-5.056-24.169-9.114-52.956-15.9,0,0,32.038,8.865,54.744,19.862.337.168.671.338,1,.508,1.716.936,4.308,3.065,1.938,3.065h0c-.556,0-5.2.012-12.079.031l-5.1.014c-.916,0-1.858.006-2.819.007l-14.049.04-8.29.023c-19.18.054-38.642.108-43.5.119l-1.107,0a23.769,23.769,0,0,1-9.309-2.56h0a202.07,202.07,0,0,0-22.09-10.564c-2.445-.981-5.025-1.953-7.716-2.881a131.357,131.357,0,0,0-24.21-5.989l4.153.967h0l.492.124.425.11.582.152.48.128.6.162.528.145.619.171.576.164c.214.061.426.12.645.184l.6.175.692.2c.2.062.416.127.625.189l.724.221c.217.066.441.136.661.205.249.078.5.155.752.236l.69.22.789.256c.233.076.473.155.71.235.272.09.545.18.822.273l.742.252.852.293c.251.087.505.177.76.267.294.1.59.208.889.314l.782.282q.455.165.919.338c.266.1.534.2.8.3q.474.177.953.359l.82.313q.489.188.984.382l.839.33,1.014.406c.283.115.568.229.855.347q.518.211,1.043.43c.289.12.579.24.872.363.355.149.713.3,1.072.456l.885.379c.364.158.732.32,1.1.482l.9.4c.372.166.749.337,1.125.508.3.138.608.274.912.415.383.176.77.356,1.157.537.306.143.612.284.919.432.4.185.794.378,1.193.569.3.147.611.292.919.443.4.2.814.4,1.223.6.308.152.615.3.925.458.416.21.838.426,1.258.64.307.157.611.31.92.469.434.223.87.454,1.307.684.3.158.6.312.9.473.459.245.923.5,1.386.747.283.154.565.3.85.459.518.286,1.04.578,1.563.87.233.13.465.256.7.389l.046.026H348.056c-4.464,0-9.951-1.136-16.833-4.185s-15.069-7.322-35.541-10.284-46.432-4.7-46.432-4.7l-1.093.445s15.708,1.766,22.785,2.6c4.942.586,20.323,2.574,32.384,4.859l.469.091c.289.054.578.111.868.166l.281.056.973.2,2.1.434c1.38.325,2.748.623,4.076.988,1.336.332,2.629.729,3.9,1.1a52.6,52.6,0,0,1,9.5,4.206q.594.385,1.132.77a23.238,23.238,0,0,1,2.737,2.281,17.08,17.08,0,0,1,2.337,2.8l0,.006,0,0a12.953,12.953,0,0,1,.89,1.572,8.59,8.59,0,0,1,.669,6.329c-.181.426-.371.868-.565,1.322l-.026.051.006-.006c-4.575,10.657-12.627,28.609-13.35,29.623a.451.451,0,0,1-.105.1c-.667.456-3.514.767-6.657.74.162.342.324.68.482,1.01.073.15.143.3.214.447l.541.8s5.227-.1,5.662-.4a4.5,4.5,0,0,0,2.179-2.025c.526-1.064,2.33-5.062,3.185-6.962l189.014-5.932c2.9,0,4.076.487,5.429,1.642a7.1,7.1,0,0,1,1.555,3.565l-46.865,2.235,46.216,1.924a6.939,6.939,0,0,1-.794,1.316c-.1.117-.182.24-.284.354s-.2.23-.3.347l-.658.7q-1.334,1.421-2.815,2.92c-.985,1-2.013,2.025-3.1,3.058s-2.222,2.087-3.459,3.045a10.255,10.255,0,0,1-.944.656,3.147,3.147,0,0,1-.463.234c-.035.011-.059.014-.089.023l-.034.011c-.032,0-.03,0-.054.006l-.3.021c-.812.053-1.646.1-2.488.141l-10.618.514-23.9,1.153c-8.337.416-17.121.922-26.206,1.4l-86.42,2.793c-.506.009-1.013.019-1.52.026-4.86.072-9.683.13-14.444.138s-9.469-.017-14.08-.185c-1.152-.043-2.3-.1-3.434-.173s-2.266-.171-3.345-.337c-.268-.043-.533-.092-.779-.154-.123-.029-.238-.064-.342-.1a1.229,1.229,0,0,1-.146-.062l-.086-.16-.2-.374c-.038-.072-.077-.143-.116-.215-.013-.024-.024-.048-.039-.074-2.185-4.187-4.251-8.145-6.184-11.815l0,0c-5.819-11.039-10.458-19.477-13.7-23.724-.112-.164-.224-.325-.337-.475-.162-.2-.317-.427-.484-.6-.084-.089-.162-.192-.248-.271l-.256-.241a2.358,2.358,0,0,0-.266-.219c-.092-.066-.175-.147-.274-.207a5.457,5.457,0,0,0-.6-.345l-.318-.158-.348-.131c-.119-.043-.225-.1-.351-.133l-.377-.11c-.127-.033-.243-.081-.381-.1l-.4-.085c-.133-.027-.265-.06-.4-.084l-.42-.062c-.28-.04-.555-.089-.846-.11l-.432-.04-.416-.043c-.617-.043-1.251-.1-1.836-.124-1.185-.071-2.387-.111-3.553-.145s-2.321-.026-3.443-.017-2.215.063-3.261.138c-.258.021-.517.044-.772.067l-.746.086-.353.057c-.118.018-.238.035-.342.059s-.216.044-.326.066l-.275.068-.034.009-.019.005c-.012,0-.01,0-.007,0h0l.012-.006-.083.029-.181.067-.089.033-.045.016-.034.015-.136.057c-.177.065-.383.172-.58.265a10.233,10.233,0,0,0-1.121.668,10.381,10.381,0,0,0-1.85,1.619,7.678,7.678,0,0,0-1.895,3.7c-.031.148-.067.31-.091.441q-.03.24-.06.471c-.04.307-.078.6-.1.872-.051.545-.1,1.038-.132,1.472s-.07.8-.086,1.1c0,.036-.006.066-.007.1.211-.369.431-.724.643-1.07l.172-.277.179-.267c.12-.176.237-.351.353-.523s.225-.339.349-.509l.347-.474a26.738,26.738,0,0,1,2.625-3.059c.386-.4.759-.732,1.073-1.028s.6-.529.826-.721l.705-.579-.64.647c-.208.211-.456.482-.752.792l-.462.516c-.166.182-.336.38-.511.591a30.22,30.22,0,0,0-2.35,3.191,38.679,38.679,0,0,0-2.448,4.5q-.28.648-.572,1.317-.267.682-.542,1.389-.252.714-.514,1.451c-.156.5-.314,1-.476,1.517a48.892,48.892,0,0,0-1.422,6.59c-.076.581-.172,1.162-.224,1.755s-.128,1.185-.163,1.786c-.02.3-.042.6-.063.9s-.024.6-.036.9-.03.6-.036.91-.005.621-.009.933a52.008,52.008,0,0,0,.47,7.414,48.979,48.979,0,0,0,1.555,7.257,40.515,40.515,0,0,0,2.625,6.678c.134.257.256.523.4.771s.276.5.415.746c.068.124.134.248.2.371s.149.248.223.372c.152.246.3.492.447.737l.054.092.028.047c.011.017,0,0,.005.009l.016.022.115.174c.077.115.155.23.231.346l.458.689c.322.44.643.876.965,1.3a26.871,26.871,0,0,0,4.19,4.287,21.713,21.713,0,0,0,4.3,2.7,18.943,18.943,0,0,0,3.723,1.3c.267.057.522.113.76.166s.468.076.68.113.407.061.587.089.347.033.494.049l.908.078-.911.014c-.148,0-.315.012-.5,0l-.6-.035c-.216-.016-.451-.018-.7-.051l-.785-.107a17.588,17.588,0,0,1-3.9-1.043c-.092-.034-.187-.065-.279-.1s-.182-.082-.275-.123l-.562-.25c-.389-.159-.759-.375-1.153-.576s-.774-.444-1.171-.686-.78-.52-1.176-.8a24.717,24.717,0,0,1-2.338-1.918c-.2-.171-.383-.359-.569-.549s-.374-.381-.563-.572a3.93,3.93,0,0,1-.278-.3c-.089-.1-.18-.2-.27-.306-.183-.2-.365-.412-.549-.62-.351-.429-.7-.87-1.055-1.317l-.5-.7c-.083-.117-.168-.235-.253-.353l-.127-.177-.016-.021-.023-.034-.03-.045-.058-.09c-.158-.239-.313-.48-.472-.721l-.235-.365c-.077-.128-.152-.258-.228-.387-.151-.26-.3-.519-.457-.782s-.285-.529-.431-.8-.288-.534-.423-.807c-.057-.12-.116-.241-.173-.361-2.7-.012-5.361-.012-8.027,0-20.185.093-56.791-.158-91.342-.229,2.712-4.363,5.04-11.192,5.522-12.65q-1.9-.036-3.8-.053c-1.067-.015-2.142.017-3.231-.059a5.075,5.075,0,0,1-1.639-.351,4.121,4.121,0,0,1-1.36-.995c-.38-.4-.728-.815-1.065-1.234s-.672-.837-1-1.266l-.983-1.279c-.326-.427-.642-.862-.964-1.292-1.289-1.716-2.539-3.469-3.787-5.22l-1.8-2.676a10.4,10.4,0,0,0-.94-1.266,14.685,14.685,0,0,0-1.112-1.136,9.842,9.842,0,0,1-1.128-1.191,8.943,8.943,0,0,1-.8-1.434c-.477-.963-.961-1.925-1.425-2.892l-2.817-5.785-1.417-2.887-1.467-2.859a17.152,17.152,0,0,0-4.049-4.866,11.611,11.611,0,0,0-2.706-1.633,9.735,9.735,0,0,0-3.054-.749c-.264-.011-.543-.026-.8-.032h-.8l-1.61,0-3.219,0-6.437-.007-3.219,0H117.8c-.263,0-.526.013-.788.038a5.739,5.739,0,0,0-1.52.364,4.429,4.429,0,0,0-2.276,2.034,8,8,0,0,0-.86,3.019,16.647,16.647,0,0,0,.007,3.188c.037.531.113,1.06.178,1.591.085.527.16,1.055.266,1.581.2,1.051.435,2.1.708,3.129s.571,2.064.9,3.083c.162.509.336,1.016.514,1.521l.554,1.511.3.813.169.035c.022-.291.045-.582.071-.871q.067-.682.144-1.348c.117-.887.231-1.755.377-2.594a46.833,46.833,0,0,1,1-4.689c.381-1.436.788-2.735,1.211-3.863.4-1.136.829-2.1,1.185-2.882s.674-1.384.9-1.788l.342-.619-.265.656c-.182.421-.411,1.058-.707,1.861-.279.809-.6,1.8-.921,2.943s-.628,2.452-.925,3.881q-.1.54-.211,1.1c-.063.375-.125.756-.19,1.144s-.117.785-.178,1.187c-.03.2-.058.4-.087.607s-.05.411-.075.619c-.2,1.66-.344,3.417-.425,5.238-.028.455-.029.91-.043,1.37q-.009.346-.016.693v1.6l0,.169.009.354c.013.474.012.95.035,1.427.068,1.91.217,3.849.458,5.771s.564,3.837.976,5.7a49.484,49.484,0,0,0,1.505,5.383,38.286,38.286,0,0,0,2.025,4.805,25.126,25.126,0,0,0,2.477,3.941,16.026,16.026,0,0,0,2.754,2.79,10.218,10.218,0,0,0,2.627,1.5,5.052,5.052,0,0,0,.569.194l.262.081a1.661,1.661,0,0,0,.247.067l.449.094a2.674,2.674,0,0,0,.378.065l.7.078-.707.005a2.586,2.586,0,0,1-.386-.024l-.467-.046a1.749,1.749,0,0,1-.26-.04l-.276-.055a5.111,5.111,0,0,1-.6-.144,9.927,9.927,0,0,1-2.858-1.322,15.255,15.255,0,0,1-3.075-2.71c-.1-.11-.191-.224-.286-.338-8.848.068-16.642.178-22.82.345-54.465,1.474,66.1,16.629,207.295,21.14,125.781,4.021,225.311-6.515,183.734-9.241q-9.238-.6-17.926-1.174c6.45-3.944,12.547-12.962,15.759-25.389,4.659-.107,18.089-.537,20.115-1.973,2.458-1.742,12.676-12.631,13.024-14.548A23.515,23.515,0,0,0,522.923,384.1ZM139.628,348.233a98.781,98.781,0,0,1,29.413,4.245c-.009,1.165-.082,18.545,3.586,29.314a89.732,89.732,0,0,0-12.371-16.024,63.758,63.758,0,0,0-14.862-11.547,40.667,40.667,0,0,0-18.627-5.241A106.219,106.219,0,0,1,139.628,348.233Zm-48.707,38.8c-.174-.161-.351-.328-.528-.5a50.22,50.22,0,0,1-4.4-4.974c-.753-.958-1.506-1.968-2.246-3.01s-1.481-2.113-2.2-3.2-1.412-2.182-2.059-3.284c-.322-.551-.635-1.1-.918-1.654s-.569-1.112-.794-1.659a3.576,3.576,0,0,1-.242-.806.8.8,0,0,1,.128-.646,1.366,1.366,0,0,1,.61-.384,4.692,4.692,0,0,1,.781-.2c.156-.028.311-.052.466-.074C82.45,374.969,87.769,382.809,90.921,387.028Zm273.748-64.382C348.1,311.321,335,303.791,315.54,297.3c-5.265-1.8-10.963-3.521-17.29-5.215,8.627-.382,17.026-.577,25.112-.577,17.013,0,29.3.383,42.944,2.085l24.635,28.457Zm-32.488,10.1.043.01.566.131.292.091.078.023C332.832,332.917,332.511,332.831,332.181,332.747ZM515.348,356.06c-.4.625-1.839,3.383-3.529,13a2.639,2.639,0,0,1-2.622,1.776l-2.818.051-15.214.412-.048,0a2.182,2.182,0,0,1-.255.013l-9.633.241a1.348,1.348,0,0,1-1.1-.53,1.514,1.514,0,0,1-.214-1.338l1.565-5.5v.026c.015.156.023.311.041.464a8.839,8.839,0,0,0,.172.912l.055.225a2.145,2.145,0,0,0,.064.221c.049.145.1.292.145.436s.119.281.178.422l.089.21.107.2c.076.132.138.272.223.4s.166.252.248.378.187.235.28.354c.048.058.092.118.143.173l.159.157.159.158.079.08.089.069.35.274c.123.082.251.156.376.233a2.59,2.59,0,0,0,.4.2l.2.091.1.045.1.03c.134.041.264.083.394.122l.05.016.027,0,.013,0,.027.005.105.017.21.035.211.033c.07.008.139.007.21.011.139.006.28.009.418.011l.409-.039c.067-.009.136-.012.2-.025l.2-.043c.13-.027.26-.055.387-.09a5.567,5.567,0,0,0,1.367-.633,6.669,6.669,0,0,0,1.853-1.8,8.72,8.72,0,0,0,.943-1.731,7.04,7.04,0,0,0,.252-.683c.034-.1.068-.192.094-.277s.043-.165.06-.235l.112-.431v0s.028-.152.083-.438c.013-.071.029-.151.046-.239s.019-.187.032-.292a7.194,7.194,0,0,0,.061-.724,8.345,8.345,0,0,0-.13-1.967,6.612,6.612,0,0,0-.944-2.413,4.888,4.888,0,0,0-.446-.593,2.857,2.857,0,0,0-.264-.277c-.1-.088-.185-.183-.286-.268a4.824,4.824,0,0,0-.661-.464c-.121-.066-.232-.144-.364-.2l-.4-.169-.1-.042-.1-.03-.194-.054-.2-.055-.048-.015-.013,0-.03-.007-.028-.005-.107-.017-.434-.062c-.146-.011-.295-.008-.444-.014a4.879,4.879,0,0,0-1.771.33,5.97,5.97,0,0,0-1.606.908,6.859,6.859,0,0,0-1.314,1.333l-.012.016.55-1.936a3.023,3.023,0,0,1,2.726-1.993h27.608a1.408,1.408,0,0,1,1.161.493A1.261,1.261,0,0,1,515.348,356.06Zm-23.509,6.884c.009-.071.021-.148.029-.233s.014-.176.021-.274.016-.2.024-.314,0-.224.006-.345c0-.061,0-.122,0-.186s0-.125-.006-.19c-.007-.13-.01-.264-.021-.4s-.026-.256-.041-.388v-.006l0,.025a8.3,8.3,0,0,1,.131,1.588c0,.048-.008.1-.01.146-.007.231-.018.466-.046.7a8.8,8.8,0,0,1-.142.875c-.778,3.606-3.579,6.1-6.245,5.557s-4.2-3.916-3.424-7.524c.018-.084.039-.168.059-.251l.181-.638a8.191,8.191,0,0,1,1.49-2.736,6.72,6.72,0,0,1,.914-.82,5.452,5.452,0,0,1,1.478-.792,4.611,4.611,0,0,1,1.38-.271l.03,0c.12.017.264.042.428.079s.345.088.54.156a4.35,4.35,0,0,1,.614.256c.039.018.077.039.117.06.022.015.05.028.077.044a5.252,5.252,0,0,1,.443.285,4.541,4.541,0,0,1,.605.534c.046.053.093.105.139.159l.069.079.064.086.127.173.117.185a4.338,4.338,0,0,1,.214.384c.065.131.121.269.179.4s.1.277.142.419.083.28.111.423.06.28.083.418.04.275.059.408.022.267.033.393c0,.063.012.125.014.188s0,.122,0,.182c0,.119,0,.232.006.341s-.005.213-.006.31,0,.189-.006.273-.011.162-.015.233c-.02.28-.029.44-.029.44ZM336.331,356.8c.623-1.54,1.794-2.408,6.465-2.88,4.773-.482,13.1-.5,26.887-.538,2.056,0,4.237-.01,6.556-.018h.036a16.676,16.676,0,0,1,4.08.614,20.165,20.165,0,0,0,5.074.723h.109l3.59-.023,13.512-.084,30.03-.185,7.809-.049c11.975-.075,23.883-.151,34.16-.218q2.336-.016,4.553-.029a8.968,8.968,0,0,0,3.011-.722,7.481,7.481,0,0,1,2.378-.606c19.546-.127,29.754-.168,30.338-.124a2.548,2.548,0,0,1,1.964.968,1.349,1.349,0,0,1,.061,1.247c-.064.163-.148.372-.25.625a2.42,2.42,0,0,0-.49-1.293,2.731,2.731,0,0,0-2.209-1.012H486.387a4.324,4.324,0,0,0-3.995,2.948l-.86,3.025-8.347.1-32.976.372-7.933.09-43.291.489-11.2.127c.014-.034.026-.062.041-.1a8.03,8.03,0,0,1,.727-1.452l.11-.128.045-.156a2.841,2.841,0,0,0-.409-2.562,3.325,3.325,0,0,0-2.721-1.225l-33.746.347a5.211,5.211,0,0,0-4.831,3.332l-.955,3.117-1.714.021C335.194,359.54,335.889,357.89,336.331,356.8Zm40.987,1.177c-.5.712-2.255,3.865-4.329,14.876-.231,1.227-1.875,2.05-3.266,2.05l-34.215,1.041a1.788,1.788,0,0,1-1.461-.687,1.585,1.585,0,0,1-.216-1.433l4.593-14.981a3.761,3.761,0,0,1,3.419-2.286l33.746-.348a1.86,1.86,0,0,1,1.525.631A1.342,1.342,0,0,1,377.318,357.977Zm136.09,18.613-1.482.045-2.962.09-5.925.179-11.85.357-23.7.714-47.4,1.445-94.14,2.94c2.382-5.8,6.163-15.527,8.141-20.263.052,0,.1,0,.153.009l-.079-.009,1.618-.018.437-.005-.129.423-.374,1.222-.068.227-.239,0-.257-.006-1.628,3.855.494,0,.462-.005-.135.443-.373,1.224-.072.239-.25,0-.749.035-4.267,10.1,50.84-1.615,26-.784,13-.427,12.635-.433,1.544-5.976a4.729,4.729,0,0,0-1.118-.8,8.073,8.073,0,0,0-1.617-.555,7.62,7.62,0,0,0-.849-.166,8.648,8.648,0,0,0-.878-.1l-.455-.037-.108-.01h-.072l-.228,0-.912.013-7.3.082-14.6.162-29.206.29-.649.006.142-.632.28-1.228.09-.393.406,0,58.114-.539.518-1.99a1.57,1.57,0,0,0-.293-.269,3.215,3.215,0,0,0-.531-.364,4.017,4.017,0,0,0-.589-.3,2.879,2.879,0,0,0-.309-.129l-.32-.108a5.739,5.739,0,0,0-.656-.185,5.552,5.552,0,0,0-.674-.14c-.227-.035-.451-.085-.683-.1l-.678-.068-26.331.336-13.18.153-13.178.1-.568,0,.173-.533.4-1.234.088-.273.292,0,103.844-.813.293,0-.081.282-.276.967-.045.157h-.162l-43.011.425-1.149,4.4,21.311-.135,21.483-.182h.1l-.026.091-.3,1.069-.015.05h-.052l-42.94.47-2.231,8.582,11.635-.257,5.838-.156,5.837-.168,23.354-.671,17.224-.52,8.612-.259,4.306-.13,2.153-.064a2.911,2.911,0,0,1,1.078.065.714.714,0,0,1,.4.364,1.364,1.364,0,0,1,.107.532v.021a.992.992,0,0,1-.331.663A1.04,1.04,0,0,1,513.408,376.59ZM141.356,410.128a19.463,19.463,0,0,1-2.947,4.8l-.536.581a9.578,9.578,0,0,1-2,1.577l-.066.037c-.073.043-.148.083-.223.121-.04.021-.078.042-.117.061-.058.029-.117.058-.175.084s-.1.048-.153.072l-.141.059c-.06.025-.119.048-.179.071-.04.015-.08.031-.119.044-.066.024-.131.046-.2.068l-.108.034c-.068.019-.136.041-.2.059-.036.01-.072.018-.107.026-.068.017-.136.035-.207.051l-.113.02c-.066.014-.132.027-.2.037-.044.008-.089.013-.132.019-.062.009-.122.017-.184.023s-.116.011-.175.016l-.142.011c-.108.006-.215.008-.322.008-3.358,0-6.464-2.795-8.744-7.875a50.595,50.595,0,0,1,0-36.489,17.757,17.757,0,0,1,3.772-5.66c.555-.006,1.109-.012,1.655-.016a27.031,27.031,0,0,1,6.494.606l.014-.011c.083.028.161.062.242.091a10.778,10.778,0,0,1,2.241,1.132.083.083,0,0,0,.022.014q.241.162.477.335l.084.066c.133.1.266.2.4.309.064.053.124.108.187.162.091.08.186.159.277.242.152.14.3.284.448.431a23.914,23.914,0,0,1,1.179,2.3,35.036,35.036,0,0,1,2.06,6.194l.028.011-.017.033a52.585,52.585,0,0,1,1.331,12.006A45.831,45.831,0,0,1,141.356,410.128Zm158.929-33.3.065-.2c.351.547.723,1.151,1.124,1.831-.084.186-.171.385-.265.6-.291.66-.615,1.436-.953,2.273-.17.418-.336.852-.507,1.3s-.335.892-.493,1.347-.311.91-.46,1.361-.282.9-.406,1.33c-.059.217-.119.431-.178.64s-.1.417-.155.617c-.105.4-.175.786-.251,1.14s-.115.682-.159.973c-.029.291-.06.547-.077.758-.015.422-.025.665-.025.665s-.019-.243-.055-.667c-.007-.212-.007-.47-.013-.769.01-.3.021-.631.045-1s.059-.762.116-1.177c.027-.209.049-.424.083-.641s.067-.442.1-.667c.072-.453.158-.918.249-1.391s.192-.951.3-1.428.222-.951.334-1.42.236-.924.356-1.368c.239-.885.475-1.708.689-2.41S300.155,377.223,300.285,376.823Zm-.753,22.462-.012-.3-.024-.3a9.126,9.126,0,0,0-.188-1.2,7.229,7.229,0,0,0-.852-2.148,5.05,5.05,0,0,0-.658-.849,3.528,3.528,0,0,0-.792-.6,2.681,2.681,0,0,0-.875-.288l-.111-.012-.055-.005c.041,0,.006,0,.013,0h-.058c-.083,0-.179,0-.252,0l-.2.016-.213.04a3.324,3.324,0,0,0-.785.3,4.025,4.025,0,0,0-.651.45,5.506,5.506,0,0,0-.9.985,8.184,8.184,0,0,0-.475.743l-.154.276s.03-.105.084-.306a5.987,5.987,0,0,1,.32-.846,5.013,5.013,0,0,1,.771-1.206,4.513,4.513,0,0,1,.659-.627,3.624,3.624,0,0,1,.917-.492l.272-.085c.1-.02.2-.04.3-.063s.174-.019.262-.032l.034,0,.016,0h.039l.075,0h.153a3.442,3.442,0,0,1,1.233.269,4.325,4.325,0,0,1,1.11.7,5.6,5.6,0,0,1,.891,1,6.766,6.766,0,0,1,.666,1.185,8.061,8.061,0,0,1,.452,1.3,8.9,8.9,0,0,1,.247,1.37l.03.349.018.357.006.341c0,.117,0,.234-.006.351a9.319,9.319,0,0,1-.511,2.744,6.862,6.862,0,0,1-1.382,2.379,4.753,4.753,0,0,1-1.054.867,3.637,3.637,0,0,1-1.256.467l-.163.024-.173.014a2.811,2.811,0,0,1-.3.005h-.053l-.04,0-.079-.007-.157-.016a2.063,2.063,0,0,1-.3-.058,3.382,3.382,0,0,1-1.062-.454,4.406,4.406,0,0,1-1.333-1.372,5.959,5.959,0,0,1-.615-1.288,5.083,5.083,0,0,1-.149-.5c-.038-.147-.07-.271-.086-.372-.038-.2-.057-.312-.057-.312l.129.29c.082.19.216.458.4.787a7.271,7.271,0,0,0,.778,1.094c.088.093.171.2.272.285.05.045.1.091.148.138s.107.089.161.132a3.706,3.706,0,0,0,.721.464,2.6,2.6,0,0,0,.852.248,1.7,1.7,0,0,0,.225.016h.214a2.29,2.29,0,0,0,.254-.03l.1-.018.113-.03a2.7,2.7,0,0,0,.873-.412,4.056,4.056,0,0,0,.761-.72,5.824,5.824,0,0,0,.608-.94,7.4,7.4,0,0,0,.444-1.083,8.86,8.86,0,0,0,.4-2.384l.008-.308ZM310.75,400.5c0,.073,0,.143,0,.214-.007.273-.016.544-.028.816,0,.033,0,.066,0,.1a38.785,38.785,0,0,1-5.851,19.495c-3.9,5.919-9.13,9.177-14.731,9.177s-10.832-3.258-14.73-9.177c-3.8-5.774-5.9-13.427-5.9-21.551s2.094-15.779,5.9-21.552c3.9-5.918,9.13-9.179,14.73-9.179a14.359,14.359,0,0,1,3.366.4,6.838,6.838,0,0,1,2.185,1.127l2.281,2.7h0c.415.608.83,1.206,1.271,1.857a10.8,10.8,0,0,0-3.858-.725,10.932,10.932,0,0,0-4.348.915c-.059.453-.128,1.015-.2,1.662-.045.431-.086.9-.122,1.39s-.067,1.014-.084,1.553c-.009.269-.016.541-.016.818,0,.138,0,.277,0,.417s.007.279.01.418c.008.56.057,1.135.12,1.681.088.577.175,1.155.262,1.725.106.557.206,1.107.317,1.638q.094.4.185.778c.031.127.061.253.09.376s.07.245.106.364c.07.238.138.471.205.7s.155.433.226.638c.138.413.313.771.453,1.1s.3.589.417.817c.258.44.411.691.411.691s-.176-.234-.477-.649c-.137-.216-.319-.471-.5-.78s-.387-.66-.567-1.064c-.093-.2-.2-.406-.292-.626l-.28-.683c-.047-.119-.1-.238-.142-.359s-.086-.248-.129-.374q-.132-.376-.267-.77c-.165-.529-.323-1.081-.487-1.641-.143-.558-.287-1.125-.431-1.691-.133-.607-.237-1.191-.307-1.779-.018-.146-.036-.291-.053-.437s-.027-.289-.041-.432c-.028-.288-.049-.57-.067-.849-.037-.557-.057-1.094-.07-1.6s-.017-.992-.015-1.437c0-.233,0-.456.005-.667a19.391,19.391,0,0,0-6.64,7.672c.094.212.211.44.335.691.139.285.317.578.49.9.092.158.194.313.3.477s.2.332.317.491.233.326.351.493c.059.084.118.168.179.252l.2.257c.262.344.529.694.8,1.042.536.7,1.072,1.393,1.575,2.044s.986,1.246,1.4,1.764c.2.261.4.487.572.691s.325.382.449.53l.392.46-.449-.406-.514-.467c-.2-.18-.427-.381-.661-.613-.472-.46-1.035-.99-1.62-1.572l-1.832-1.825-.925-.929c-.077-.077-.153-.153-.228-.23s-.151-.162-.226-.241c-.15-.161-.3-.321-.443-.476s-.271-.324-.406-.481-.262-.311-.382-.467c-.165-.227-.331-.44-.481-.649a34.672,34.672,0,0,0-2.643,10.906c.263.073.615.173,1.019.274l.743.191c.261.069.545.132.834.2s.591.145.9.21.618.137.93.206l.933.19c.307.064.61.124.905.174l.85.152.764.116c.238.034.456.072.649.091l.5.057.44.05-.441.03c-.141.008-.311.02-.506.033s-.418.016-.659.026l-.781.023-.871,0c-.3,0-.615,0-.932-.011l-.963-.02-.964-.038c-.318-.01-.63-.032-.932-.048s-.6-.031-.874-.05-.543-.04-.787-.059c-.333-.022-.618-.047-.858-.068q-.027.741-.028,1.494a36.658,36.658,0,0,0,2.047,12.288c.153-.229.326-.462.5-.708.117-.158.247-.315.373-.477l.195-.245.208-.24c.144-.159.28-.327.433-.485s.3-.318.456-.481c.32-.309.64-.628.98-.921s.68-.584,1.017-.865.684-.539,1.021-.782.662-.48.972-.7.612-.415.886-.6.53-.347.754-.495.424-.271.586-.374l.512-.324s-.17.14-.465.386c-.148.125-.329.273-.531.449s-.435.369-.681.587-.519.452-.794.708-.57.521-.864.808-.59.586-.891.89-.592.627-.868.958-.55.663-.812.994c-.123.17-.247.338-.368.505s-.228.339-.341.5c-.054.083-.109.165-.163.246l-.149.248c-.1.165-.2.323-.285.481-.168.321-.339.617-.467.9-.067.143-.131.279-.193.409s-.1.252-.152.367c-.031.077-.061.149-.091.22,2.108,4.8,5.25,8.431,8.924,10.1v-.013c.016-.468.025-1.12.058-1.917.016-.4.033-.828.051-1.283s.057-.938.086-1.435c.015-.248.033-.5.049-.756s.053-.516.08-.777.056-.524.083-.787l.042-.4.062-.4c.083-.527.167-1.052.248-1.569.111-.512.221-1.015.325-1.5.058-.241.1-.482.165-.712s.126-.456.187-.674c.121-.438.236-.851.341-1.233s.237-.721.337-1.027.19-.57.264-.787c.146-.437.23-.686.23-.686l-.155.706c-.048.226-.107.5-.176.811s-.149.665-.22,1.051-.131.808-.2,1.252c-.037.223-.073.451-.112.683s-.053.474-.084.717c-.049.486-.1.988-.156,1.5-.024.513-.05,1.031-.074,1.551l-.018.388,0,.389q0,.39,0,.772c0,.256,0,.509,0,.759s.023.5.033.743c.026.489.035.957.07,1.407s.06.869.088,1.26c.054.78.115,1.441.15,1.9.035.434.057.69.058.717a10.676,10.676,0,0,0,6.71-.4,20.328,20.328,0,0,0,1.683-1.722l-.108-.26-.3-.752c-.113-.29-.233-.62-.367-.979s-.267-.75-.413-1.162-.282-.853-.431-1.306-.288-.926-.429-1.408c-.069-.241-.14-.482-.211-.726s-.127-.491-.19-.738l-.189-.737-.05-.193-.039-.183c-.025-.122-.051-.243-.077-.365-.052-.242-.1-.484-.154-.721-.023-.118-.048-.236-.074-.353s-.039-.241-.059-.358c-.039-.237-.078-.468-.116-.7-.019-.114-.036-.226-.055-.337s-.027-.22-.04-.329c-.047-.434-.111-.84-.13-1.22s-.058-.726-.061-1.036c0-.152-.008-.3-.012-.43s0-.255,0-.366c0-.221.014-.394.021-.513s.013-.179.013-.179,0,.062.006.179.015.292.039.51c.013.11.025.23.037.362s.04.272.063.423c.036.3.105.642.175,1.01s.17.764.264,1.182c.026.1.051.21.075.316s.062.213.092.322q.093.322.189.659c.031.111.063.223.1.337l.114.343q.117.346.235.7c.038.117.078.235.118.352l.059.178.064.166c.09.231.178.465.268.7s.177.465.266.7.193.457.288.684c.19.452.374.9.574,1.32s.374.839.564,1.223.359.75.53,1.082.322.637.463.9c.035.064.067.124.1.186a30.661,30.661,0,0,0,4.288-8.579c-.021-.022-.041-.042-.062-.065-.171-.174-.347-.371-.537-.576s-.379-.432-.58-.659-.393-.476-.6-.72-.4-.488-.607-.733-.406-.505-.591-.764-.368-.509-.537-.758-.32-.5-.466-.729-.274-.457-.391-.664c-.236-.414-.431-.76-.563-1l-.21-.382.267.346c.168.219.413.532.708.9.146.185.313.381.484.59s.362.42.561.635.407.434.629.647.448.425.675.638.475.424.7.619c.244.188.478.378.713.553s.459.343.68.5c.061.041.118.081.176.123a41.587,41.587,0,0,0,1.478-9.265l-1.092-.226c-.233-.05-.469-.09-.714-.155l-.738-.181-1.449-.358c-.23-.054-.449-.122-.658-.178s-.406-.114-.59-.164c-.364-.1-.666-.184-.877-.25l-.331-.1.345.021c.22.016.533.031.91.044l.608.027c.215.006.441.022.676.024.467.006.966.012,1.465.02l.741.008c.241.007.489-.008.723-.011l1.024-.025c0-.175,0-.347,0-.522a42.372,42.372,0,0,0-1.122-9.735l0,0c-.391.237-.845.509-1.333.8s-1.005.623-1.51.962c-.254.17-.509.338-.758.5s-.487.343-.72.508-.456.33-.663.49-.412.3-.584.454-.335.282-.476.4-.252.238-.352.33c-.191.187-.3.294-.3.294l.242-.345c.08-.109.164-.253.288-.4l.4-.491c.144-.184.32-.361.495-.562s.365-.411.57-.616l.624-.643.663-.646c.441-.437.9-.848,1.327-1.249l1.192-1.061.24-.207c1.147,2.344,2.455,5.1,3.959,8.379.016.255.03.51.041.767,0,.033,0,.066,0,.1q.018.406.028.816c0,.072,0,.141,0,.213.006.31.01.617.01.928S310.756,400.189,310.75,400.5Zm28.265,21.78c.61-.8,1.211-1.624,1.794-2.46h11.96l1.752.8,42.468-.66,15.826-3.1a82.93,82.93,0,0,0,10.375,10.539C387.3,425.1,360.323,423.443,339.015,422.278Z" transform="translate(8 155)" fill="#36454e"/>
  </g>
</svg>
