<svg xmlns="http://www.w3.org/2000/svg" width="254.082" height="108.053" viewBox="0 0 254.082 108.053">
  <g id="Logo_2" data-name="Logo 2" transform="translate(-944.918 -158.546)">
    <g id="Logo" transform="translate(361 -65)">
      <g id="Group_1" data-name="Group 1" transform="translate(430.94 109.088)">
        <g id="Group_3" data-name="Group 3" transform="translate(-154.62 -63.635)">
          <path id="Path_1" data-name="Path 1" d="M404.578,240.134c-.385.814-.764,1.628-1.128,2.444q-2.586,5.784-4.591,11.813l-.291.759c-.583,1.461-1.094,3.015-1.661,4.615-.276.8-.523,1.628-.792,2.463s-.537,1.684-.777,2.562l-.753,2.658-.687,2.7-.174.683-.022.086-.025.113-.038.175-.036.167,2.427,2.761.855.084c.024-.2.048-.406.072-.606q.083-.7.166-1.4l.081-.669.108-.7q.215-1.39.426-2.749l.479-2.622c.149-.864.33-1.715.514-2.554s.348-1.669.542-2.478c.4-1.613.758-3.186,1.191-4.67l.313-1.129q1.933-5.747,4.4-11.288c.419-.937.855-1.874,1.3-2.808A2.113,2.113,0,0,1,404.578,240.134Z" transform="translate(-20.668 -36.353)" fill="#d24a43"/>
          <path id="Path_100" data-name="Path 100" d="M360.641,200.652l.07.037c.033.016.062.034.094.051.074.07,1.055-5.588,2.116-6.52-.293,1.174-.631,3.132.11,3.911a7.286,7.286,0,0,1,5.7-4.413c-.643.925-1.505,2.323-1.4,3.041,0,0,4.428-2.287,8.5-1.844,0,0-1.928,1.516-1.633,2.469,0,0,2.911-1.546,5.355-.964a3.547,3.547,0,0,0-.774,2.107,8.524,8.524,0,0,1,2.61-.43c2.51.383,1.544,4.4,1.942,5.159a2.175,2.175,0,0,0,2.481,1.057,3.29,3.29,0,0,0,.7-.256,14.136,14.136,0,0,1,4.149-1.045c.255.139.5.288.752.442,2.577,1.885,1.051,5.469,1.735,5a3.755,3.755,0,0,0,1.458-1.814c2.766,4.742-.3,6.857.881,6.387a4.054,4.054,0,0,0,2.273-2.781c2.784,5.024.9,8.5.9,8.5a4.831,4.831,0,0,0,2.2-1.78c2.006,6.191-.495,13.138-.495,13.138,7.063-9.039,6.039-16.244,4.039-21.859-1.656-4.652-10.764-8.114-13.837-9.163.031-.007.062-.015.094-.021q.555-.139,1.164-.253c5.249-.427,8.98,4.173,8.98,4.173a4.956,4.956,0,0,0-.016-3.215,11.7,11.7,0,0,1,4.634,3.292,6.04,6.04,0,0,0,.419-2.256,19.391,19.391,0,0,1,4.949,5.761,4.273,4.273,0,0,0,.506-3.53c.036.03.073.06.111.089s.1.081.147.121l0,.088.323.184A10.564,10.564,0,0,1,415.3,211.4c.474-.324,1.184-2.733,1.575-4.181A15.731,15.731,0,0,1,421.56,218.6c.032-.2,2.368-14.128-9.82-21.418-7.879-4.712-17.357-2.917-19.467-2.358l.039-.04a4.01,4.01,0,0,1,2.681-1.373,2.787,2.787,0,0,0-.847-.765,8.206,8.206,0,0,1,4.3-.711,13.927,13.927,0,0,0-2.762-1.693c3.842-2.524,6.6-1.817,6.6-1.817a6.252,6.252,0,0,0-1.946-1.969,11.8,11.8,0,0,1,10.372,1.059,10.055,10.055,0,0,0-1.59-3.106,21.24,21.24,0,0,1,10.084,3.536c-10.807-10.964-17.523-8.963-22.694-6.276-4.584,2.385-7.664,10.158-8.3,11.886h0a1.789,1.789,0,0,1-.3.507c-.167-2.7-1.1-9.919-6.282-13.147-6.441-4.015-12.759-3.5-17.255-.011a17.32,17.32,0,0,1,6.73-.069,6.738,6.738,0,0,0-2.093,2.5s5.115-.8,8.7.839a9.166,9.166,0,0,0-3.843,1.384,19.646,19.646,0,0,1,4.813,2.279,4.913,4.913,0,0,0-1.267.467,9.147,9.147,0,0,1,4.7,3.192,1.072,1.072,0,0,0-.4.229,7.608,7.608,0,0,1,1.316,1.452c-3.377-2.122-13.137-7.618-19.415-4.667a11,11,0,0,0-2.524,1.616C355.024,194.96,360.886,201.081,360.641,200.652Zm-.169-9.947C360.452,190.726,359.753,190.6,360.471,190.705Z" fill="#d24a43"/>
        </g>
        <g id="Group_2" data-name="Group 2">
          <path id="Path_96" data-name="Path 96" d="M235.659,158.831a2.4,2.4,0,0,0,2.31-2.3,1.929,1.929,0,0,0-2.13-1.756l-.191.011c-.1.011-.254.011-.447.016-2.241.056-9.013.223-12.163,8.555l-1,1.154c-6.309,7.271-10.868,12.525-19.25,16.665-5.907,2.9-11.38,4.5-15.413,4.5-5.045,0-7.5-2.349-7.5-7.184,0-15.021,28.377-37.013,40.427-39.357a14.386,14.386,0,0,1,2.724-.289c3.771,0,3.883,1.953,3.932,2.822a2.373,2.373,0,0,0,2.228,2.445,2.239,2.239,0,0,0,1.73-.863,4.841,4.841,0,0,0,.67-4.005c-.292-1.8-1.817-4.832-8.756-4.832a26.125,26.125,0,0,0-4.709.431A56.821,56.821,0,0,0,186.636,152.5c-7.736,8.639-11.658,17.4-11.658,26.051,0,4.421,1.45,8,4.193,10.364a14.747,14.747,0,0,0,9.781,3.189,26.845,26.845,0,0,0,9.464-1.857c6.328-2.3,13.7-7.877,21.955-16.6-.687,2.422-1.411,4.858-2.181,7.348-11.724,6.092-20.382,13.229-27.209,22.415-4.847,6.416-6.571,12.214-4.732,15.909a5.9,5.9,0,0,0,5.622,3.188c8.688,0,22.5-12.214,32.28-39.034.409-1.063,5.051-3.183,6.617-3.206a1.977,1.977,0,0,0,2.371-1.571,2.08,2.08,0,0,0-1.252-2.379,2.726,2.726,0,0,0-.935-.148,14.049,14.049,0,0,0-4.715,1.236c1.012-3,2.058-6.24,3.171-9.812C231.042,162.432,233.393,159.154,235.659,158.831Zm-30.952,50.355c-4.117,5.785-7.891,7.838-9.873,7.838a1.631,1.631,0,0,1-1.626-.906c-.878-1.694-.335-5.9,4.091-12.191a58.914,58.914,0,0,1,18.915-17.215A102,102,0,0,1,204.707,209.186Z" transform="translate(-22)" fill="#36454e"/>
          <path id="Path_97" data-name="Path 97" d="M334.927,180.238c-4.049,5.588-5.453,9.3-4.554,12.032a5.131,5.131,0,0,0,3.581,3.243,6.578,6.578,0,0,0,1.742.338l.31.032h.08c4.912-.016,9.839-4.185,14.664-12.42,2.406-4.34,5.468-11.34,8.709-18.753l.539-1.229a122.788,122.788,0,0,0,10.752-11.188,6.731,6.731,0,0,0,1.068,2.842c1.333,1.957,3.74,3.035,6.777,3.035h0a19.5,19.5,0,0,0,9.629-2.944,42.244,42.244,0,0,0,14.641-15.808,2.172,2.172,0,0,0,.3-2.027,1.766,1.766,0,0,0-1.043-1.012,2.171,2.171,0,0,0-2.652.94l-.059.1a40.51,40.51,0,0,1-13.735,13.89,13.788,13.788,0,0,1-6.2,2.245,1.6,1.6,0,0,1-1.325-.44c-.193-.252-.574-1.086.051-3.362a18.993,18.993,0,0,1,1.167-3.036,2.584,2.584,0,0,0,2.348.4c4.185-1.176,12.206-6.2,15.25-11.391,1.2-2.059,1.948-5.138.893-7.373A4.156,4.156,0,0,0,394.651,126a5.572,5.572,0,0,0-.847-.062c-5.621,0-14.123,7.963-18.874,14.441a8.192,8.192,0,0,0-1.207,1.374,115.6,115.6,0,0,1-9.216,11q.671-1.556,1.315-3.047c1.517-3.516,2.952-6.837,4.072-9.582a1.755,1.755,0,0,0-.188-1.665,3.5,3.5,0,0,0-1.792-1.2,2.115,2.115,0,0,0,.449-1.395,3.792,3.792,0,0,0-2.242-3.251,6.752,6.752,0,0,0-3.129-.669,15.58,15.58,0,0,0-6.284,1.522c-4.336,1.9-14.473,10.079-18.767,17.481A61.194,61.194,0,0,1,327.63,162.2a2.181,2.181,0,0,1-1.153.536c-.067,0-.075-.009-.107-.046a3.7,3.7,0,0,1-.248-2.554,35.614,35.614,0,0,1,4.711-12.472l.06-.108a2.135,2.135,0,0,0-.046-2.116,2.3,2.3,0,0,0-.74-.731,1.91,1.91,0,0,0,.689-1.669,3.726,3.726,0,0,0-2.163-3.258,6.763,6.763,0,0,0-3.116-.666,16.11,16.11,0,0,0-6.291,1.524c-4.411,1.922-14.745,10.237-18.948,17.663a63.508,63.508,0,0,1-10.036,10.926,2.7,2.7,0,0,1-.822.436,5.5,5.5,0,0,1,.375-2.971,57.308,57.308,0,0,1,7.165-13.4c2.583-3.494,3.748-5.556,2.952-7.136a2.5,2.5,0,0,0-2.466-1.279,8.832,8.832,0,0,0-2.056.294c-1.918.474-3.793.8-5.628,1.064l1.849-3.341c1.212-2.467,1.429-3.533.9-4.389a1.693,1.693,0,0,0-1.454-.79c-.819,0-1.625.5-3.1,1.455l-.3.194c-2.7,1.8-6.361,6.089-7.2,9.1a2.545,2.545,0,0,0,1.054,3.016,86.784,86.784,0,0,1-6.763,11.423c-.043.062-.065.12-.1.182a60.976,60.976,0,0,1-10.193,11.009,2.2,2.2,0,0,1-1.161.535c-.07,0-.079-.009-.11-.045a3.652,3.652,0,0,1-.242-2.514,35.133,35.133,0,0,1,4.71-12.366l.059-.108a2.125,2.125,0,0,0-.04-2.109,2.268,2.268,0,0,0-.729-.723,1.911,1.911,0,0,0,.675-1.655,3.7,3.7,0,0,0-2.17-3.241,6.779,6.779,0,0,0-3.1-.655,16.236,16.236,0,0,0-6.3,1.52c-5.257,2.281-18.882,13.539-20.6,21.6a6.362,6.362,0,0,0,1.346,5.851,7.477,7.477,0,0,0,5.463,2.391,5.975,5.975,0,0,0,1.118-.1c4.553-.855,9.262-6.342,12.632-10.724a11.772,11.772,0,0,0,.164,4.936,4.671,4.671,0,0,0,4.644,3.355c2.78,0,6.093-1.939,7.978-3.724a63.426,63.426,0,0,0,10.35-12.645c2.07-3.078,3.983-6.221,5.83-9.281.605-1,1.208-2,1.819-3a19.93,19.93,0,0,1,2.847-.161l.261,0a3.209,3.209,0,0,1,1.3.181c-.018.468-.617,1.478-1.786,3.008l-.267.353c-3.859,4.758-8.807,11.721-7.23,17.194a4.228,4.228,0,0,0,4.309,3.505,6.859,6.859,0,0,0,1.262-.125,15.317,15.317,0,0,0,7.086-3.88A56.39,56.39,0,0,0,299,166.793a5.765,5.765,0,0,0,.966,1.479,7.459,7.459,0,0,0,5.477,2.419,5.946,5.946,0,0,0,1.108-.1c4.556-.856,12.635-10.8,12.635-10.8s-.266,3.759.161,4.986A4.681,4.681,0,0,0,324,168.166c2.782,0,6.091-1.951,7.973-3.746a58.057,58.057,0,0,0,4.505-4.746,5.8,5.8,0,0,0,.972,1.534,7.45,7.45,0,0,0,5.483,2.436,6,6,0,0,0,1.1-.1c4.456-.837,9.15-6.4,12.728-11.143.177-.227.392-.51.637-.838-1.281,3.288-2.83,7.068-4.573,11.06C347.59,167.156,339.064,174.561,334.927,180.238Zm3.259,8.955c-1.743,1.733-2.451,1.805-2.445,1.815-.078-.028-.141-.052-.2-.252-.352-1.285.977-4.718,3.524-7.793a132.6,132.6,0,0,1,9.107-9.853C345.56,178.851,342.487,184.752,338.186,189.193Zm53.145-56.664a8.675,8.675,0,0,1,1.92-1.079c-.157,1.036-1.58,3.154-3.271,4.808a37.538,37.538,0,0,1-8.34,6.52A39.239,39.239,0,0,1,391.331,132.529ZM254.607,165.58l-.672.864c-2.062,2.635-5.64,6.368-7.815,8.639a15.029,15.029,0,0,1-4.343,3.288c-.875-2.1,3.22-8.907,6.634-12.756,4.571-4.955,9.981-8.732,13.462-9.4a8.518,8.518,0,0,1,1.513-.18,2.527,2.527,0,0,1,.611.063,6.511,6.511,0,0,0-1.105.085C262.163,156.326,261.722,156.41,254.607,165.58Zm63.181-11.98-.672.87c-2.066,2.658-5.649,6.423-7.817,8.7a15.018,15.018,0,0,1-4.338,3.307c-.932-2.17,3.252-9.038,6.636-12.881,4.571-4.99,9.981-8.79,13.459-9.454a8.437,8.437,0,0,1,1.505-.18,2.308,2.308,0,0,1,.7.09,6.353,6.353,0,0,0-1.185.084C325.345,144.277,324.9,144.361,317.788,153.6Zm30.8.986c-2.939,2.887-5.174,4.4-6.107,4.733-.855-2.251,3.236-9.152,6.692-12.875,4.478-4.988,9.85-8.792,13.367-9.464a8.384,8.384,0,0,1,1.487-.178,2.952,2.952,0,0,1,.3.013l-.091.132a3.167,3.167,0,0,0-2.4,1.738A125.058,125.058,0,0,1,348.588,154.586Z" transform="translate(-22)" fill="#36454e"/>
        </g>
      </g>
      <text id="VAN_CUBA" data-name="VAN CUBA" transform="translate(656 321)" fill="#36454e" font-size="28" font-family="Copperplate-Bold, Copperplate" font-weight="700" letter-spacing="0.15em"><tspan x="0" y="0">VAN CUBA</tspan></text>
    </g>
  </g>
</svg>
